<?xml version="1.0" encoding="UTF-8"?>
<svg width="856px" height="582px" viewBox="0 0 856 582" xmlns="http://www.w3.org/2000/svg" xmlns:xlink="http://www.w3.org/1999/xlink" version="1.1">
 <!-- Generated by Pixelmator Pro 2.0.5 -->
 <path id="efdf5e1f-6b90-40c1-9274-afa2b16f39be-1520" d="M567.81 577.553 C567.81 577.553 556.577 549.903 590.275 529.166 Z" fill="#e6e6e6" fill-opacity="1" stroke="none"/>
 <path id="af7fe47f-56e6-4bb6-aa0f-d6efaf86a160-1521" d="M553.995 577.05 C553.995 577.05 550.569 557.342 524.048 557.512 Z" fill="#e6e6e6" fill-opacity="1" stroke="none"/>
 <path id="a08d42bc-6ae2-46d7-9736-aba59e52cc48-1522" d="M807.349 577.553 C807.349 577.553 792.509 541.024 837.028 513.628 Z" fill="#e6e6e6" fill-opacity="1" stroke="none"/>
 <path id="bafd7749-4c33-42a1-9524-e744b9f16454-1523" d="M789.098 576.888 C789.098 576.888 784.572 550.852 749.534 551.076" fill="#e6e6e6" fill-opacity="1" stroke="none"/>
 <path id="Path" d="M518.204 213.051 L501.427 204.14 502.683 203.473 519.459 212.385 Z" fill="#cbcbcb" fill-opacity="1" stroke="none"/>
 <path id="Path-1" d="M503.57 213.051 L502.316 212.385 519.091 203.473 520.346 204.14 Z" fill="#cbcbcb" fill-opacity="1" stroke="none"/>
 <path id="Path-2" d="M377.898 145.559 L378.708 143.979 383.447 146.407 382.637 147.987 Z" fill="#cbcbcb" fill-opacity="1" stroke="none"/>
 <path id="Path-3" d="M476.966 196.324 L467.533 191.49 468.342 189.91 477.775 194.744 Z M458.1 186.657 L448.667 181.823 449.476 180.243 458.909 185.077 Z M439.234 176.989 L429.801 172.155 430.611 170.575 440.044 175.409 Z M420.369 167.322 L410.936 162.488 411.745 160.908 421.178 165.742 Z M401.503 157.654 L392.07 152.821 392.88 151.241 402.312 156.074 Z" fill="#cbcbcb" fill-opacity="1" stroke="none"/>
 <path id="Path-4" d="M486.398 201.157 L487.208 199.577 491.947 202.006 491.137 203.586 Z" fill="#cbcbcb" fill-opacity="1" stroke="none"/>
 <path id="Path-5" d="M129.377 262.81 Q129.377 263.642 129.323 264.46 C129.121 267.604 128.327 270.682 126.981 273.531 126.971 273.555 126.959 273.578 126.948 273.6 126.886 273.732 126.821 273.865 126.755 273.995 126.355 274.801 125.911 275.584 125.426 276.341 120.921 283.402 113.192 287.751 104.819 287.938 L105.067 302.232 108.309 300.525 108.888 301.626 105.092 303.624 105.556 330.172 105.561 330.527 103.055 331.085 103.06 330.728 103.849 287.94 C97.145 287.844 90.76 285.065 86.12 280.226 85.962 280.063 85.806 279.894 85.653 279.727 L85.635 279.708 C83.722 277.621 82.174 275.226 81.057 272.624 81.082 272.651 81.108 272.677 81.132 272.705 75.893 260.454 81.122 246.244 93.052 240.31 93.139 240.267 93.227 240.225 93.314 240.182 105.099 234.505 119.268 238.807 125.909 250.077 126.062 250.334 126.21 250.596 126.352 250.861 128.342 254.529 129.381 258.637 129.376 262.81 Z" fill="#e5e5e5" fill-opacity="1" stroke="none"/>
 <path id="Path-6" d="M158.937 240.67 C158.937 258.865 144.188 273.614 125.993 273.614 107.799 273.614 93.049 258.865 93.049 240.67 93.049 222.476 107.799 207.726 125.993 207.726 144.188 207.726 158.937 222.476 158.937 240.67 Z" fill="#e5e5e5" fill-opacity="1" stroke="none"/>
 <path id="Path-7" d="M101.668 218.666 C95.322 233.513 100.669 250.771 114.298 259.428 127.928 268.085 145.822 265.589 156.563 253.533 151.433 265.534 139.703 273.375 126.653 273.528 113.603 273.681 101.693 266.116 96.284 254.238 90.875 242.361 92.986 228.41 101.668 218.666 Z" fill="#000000" fill-opacity="1" stroke="none"/>
 <path id="Path-8" d="M127.775 332.446 L124.411 331.502 124.418 331.14 125.426 276.341 125.476 273.609 125.477 273.529 125.654 263.955 125.909 250.078 125.909 250.076 126.082 240.67 126.175 240.67 126.353 250.861 126.584 264.124 126.749 273.535 126.749 273.605 126.756 273.993 126.756 273.995 127.076 292.34 127.109 294.163 127.769 332.081 Z" fill="#3f3d56" fill-opacity="1" stroke="none"/>
 <path id="Path-9" d="M125.877 292.971 L131.323 290.104 132.082 291.545 126.636 294.412 Z" fill="#3f3d56" fill-opacity="1" stroke="none"/>
 <path id="Path-10" d="M553.044 134.052 C511.463 131.594 469.757 132.235 428.271 135.97 408.276 137.777 387.962 139.729 368.336 144.091 352.528 147.604 334.181 153.542 324.332 167.372 320.15 173.021 318.852 180.301 320.823 187.047 323.171 194.931 329.013 201.493 335.235 206.633 349.555 218.463 367.322 225.347 383.193 234.746 412.171 251.906 438.691 275.035 455.713 304.417 463.204 317.346 470.329 334.538 461.988 348.784 453.817 362.741 435.576 367.55 420.7 369.817 402.055 372.659 382.849 371.888 364.126 370.297 343.6 368.383 323.188 365.393 302.975 361.34 263.376 353.737 224.137 344.064 183.988 339.666 163.857 337.298 143.556 336.711 123.322 337.911 105.047 339.144 86.617 342.035 69.45 348.624 56.221 353.701 42.12 361.384 34.975 374.195 28.087 386.545 30.773 400.787 38.273 412.181 47.298 425.891 61.37 435.286 76 442.152 92.658 449.97 110.475 455.038 128.315 459.348 137.363 461.534 146.46 463.51 155.558 465.476 157.456 465.886 158.267 462.971 156.362 462.559 138.016 458.595 119.616 454.617 101.726 448.879 85.17 443.568 68.227 436.765 54.669 425.614 43.7 416.592 33.272 403.415 33.919 388.433 34.572 373.33 47.244 362.785 59.664 356.294 75.185 348.183 92.82 344.232 110.1 342.167 129.886 339.962 149.84 339.69 169.678 341.356 209.733 344.404 248.893 353.528 288.165 361.487 326.317 369.218 365.66 376.377 404.758 374.394 420.255 373.608 436.86 371.388 450.544 363.565 456.808 359.984 462.458 354.933 465.642 348.36 468.51 342.107 469.417 335.131 468.243 328.352 466.025 313.46 457.18 299.651 448.354 287.79 438.68 274.924 427.458 263.3 414.941 253.178 401.204 242.123 386.393 232.474 370.73 224.377 362.423 220.004 353.999 215.799 346.083 210.733 338.493 205.877 331.007 200.033 326.372 192.149 322.363 185.33 321.628 177.547 325.803 170.631 330.026 163.636 337.302 158.757 344.477 155.192 361.765 146.602 381.864 144.303 400.778 141.947 441.39 136.906 482.318 134.865 523.231 135.841 Q538.147 136.192 553.044 137.077 C554.988 137.191 554.982 134.166 553.044 134.052 Z" fill="#000000" fill-opacity="1" stroke="none"/>
 <path id="Path-11" d="M526.665 37.094 L532.946 32.07 C528.067 31.532 526.062 34.193 525.242 36.299 521.43 34.716 517.28 36.791 517.28 36.791 L529.847 41.353 C529.213 39.66 528.109 38.182 526.665 37.094 Z" fill="#3f3d56" fill-opacity="1" stroke="none"/>
 <path id="Path-12" d="M496.184 52.997 L502.465 47.974 C497.585 47.435 495.58 50.097 494.76 52.203 490.948 50.62 486.798 52.694 486.798 52.694 L499.365 57.257 C498.731 55.563 497.628 54.086 496.184 52.997 Z" fill="#3f3d56" fill-opacity="1" stroke="none"/>
 <path id="Path-13" d="M526.665 78.178 L532.946 73.154 C528.067 72.616 526.062 75.277 525.242 77.383 521.43 75.8 517.28 77.875 517.28 77.875 L529.847 82.437 C529.213 80.744 528.109 79.266 526.665 78.178 Z" fill="#3f3d56" fill-opacity="1" stroke="none"/>
 <g id="e2dfab6d-8627-4cc0-b13e-69de57259a01">
  <path id="bedd3b2f-f695-46eb-9812-80ad4d1341b6" d="M451.429 66.697 C451.429 77.148 442.957 85.62 432.506 85.62 422.055 85.62 413.582 77.148 413.582 66.697 413.582 56.246 422.055 47.774 432.506 47.774 442.957 47.774 451.429 56.246 451.429 66.697 Z" fill="#ff6583" fill-opacity="1" stroke="none"/>
  <path id="efdddea5-7f44-48b8-bec9-83339a7f085f-1524" d="M491.846 125.009 L399.013 125.009 C398.897 125.01 398.781 125.001 398.666 124.981 L442.573 48.935 C443.118 47.97 444.14 47.374 445.248 47.374 446.356 47.374 447.378 47.97 447.924 48.935 L477.389 99.966 478.8 102.408 Z" fill="#fca311" fill-opacity="1" stroke="none"/>
  <path id="f8d22fd6-a75d-4da9-80c1-fba8d7f50740-1525" d="M543.531 125.01 L463.24 125.01 478.798 102.41 479.917 100.782 500.191 71.331 C500.916 70.419 501.995 69.859 503.157 69.79 504.32 69.72 505.457 70.148 506.285 70.967 506.39 71.082 506.487 71.203 506.577 71.331 Z" fill="#fca311" fill-opacity="1" stroke="none"/>
 </g>
 <path id="Path-14" d="M411.086 299.424 C419.886 303.822 425.243 309.631 425.243 316.002 425.243 329.726 400.408 340.852 369.774 340.852 356.455 340.852 344.235 338.747 334.673 335.242 344.829 340.318 359.572 343.515 375.986 343.515 406.621 343.515 431.455 332.389 431.455 318.664 431.455 310.907 423.518 303.982 411.086 299.424 Z" fill="#f1f1f1" fill-opacity="1" stroke="none"/>
 <path id="Path-15" d="M430.659 308.852 C440.588 313.814 446.633 320.368 446.633 327.557 446.633 343.044 418.61 355.598 384.042 355.598 369.013 355.598 355.225 353.223 344.436 349.267 355.896 354.995 372.531 358.602 391.053 358.602 425.62 358.602 453.643 346.048 453.643 330.562 453.643 321.808 444.686 313.994 430.659 308.852 Z" fill="#f1f1f1" fill-opacity="1" stroke="none"/>
 <path id="Path-16" d="M403.596 303.577 C409.795 306.675 413.569 310.768 413.569 315.256 413.569 324.925 396.073 332.764 374.49 332.764 366.081 332.872 357.717 331.536 349.761 328.811 356.916 332.388 367.303 334.64 378.867 334.64 400.45 334.64 417.946 326.801 417.946 317.132 417.946 311.667 412.354 306.787 403.596 303.577 Z" fill="#f1f1f1" fill-opacity="1" stroke="none"/>
 <path id="Path-17" d="M316.492 301.802 C316.492 301.802 317.855 321.713 356.905 321.713 395.955 321.713 407.614 301.802 407.614 301.802 Z" fill="#3f3d56" fill-opacity="1" stroke="none"/>
 <path id="Path-18" d="M371.92 249.559 C366.282 245.276 359.207 243.34 352.174 244.157 365.146 247.285 374.003 259.271 373.183 272.59 372.362 285.909 362.101 296.718 348.843 298.229 361.507 301.286 374.579 295.043 380.16 283.271 385.741 271.5 382.302 257.428 371.92 249.559 Z" fill="#3f3d56" fill-opacity="1" stroke="none"/>
 <path id="Path-19" d="M356.461 240.564 L359.124 240.564 359.124 303.941 356.461 303.941 Z" fill="#3f3d56" fill-opacity="1" stroke="none"/>
 <path id="Path-20" d="M534.103 193.475 L534.088 193.45 534.052 191.902 542.393 179.792 534.062 190.743 534.032 191.071 533.747 178.692 540.952 166.137 533.727 176.518 533.802 150.873 533.802 150.788 533.8 150.872 533.321 171.083 526.755 162.873 533.3 172.824 533.157 183.897 527.114 173.091 533.134 185.524 533.054 191.681 532.834 208.738 532.818 210.012 Q533.652 210.019 534.47 209.985 L534.092 193.601 Z" fill="#cbcbcb" fill-opacity="1" stroke="none"/>
 <path id="Path-21" d="M494.165 198.8 L494.151 198.775 494.115 197.227 502.456 185.117 494.125 196.069 494.095 196.396 493.809 184.017 501.014 171.462 493.789 181.843 493.864 156.198 493.864 156.113 493.862 156.197 493.383 176.408 486.817 168.198 493.362 178.149 493.219 189.222 487.177 178.416 493.197 190.849 493.117 197.006 492.896 214.063 492.88 215.337 Q493.715 215.344 494.532 215.31 L494.154 198.926 Z" fill="#cbcbcb" fill-opacity="1" stroke="none"/>
 <path id="Path-22" d="M513.69 181.937 L513.676 181.913 513.64 180.365 521.981 168.254 513.65 179.206 513.62 179.533 513.335 167.155 520.539 154.599 513.314 164.98 513.39 139.335 513.389 139.25 513.387 139.334 512.909 159.546 506.342 151.336 512.887 161.287 512.744 172.359 506.702 161.553 512.722 173.987 512.642 180.143 512.421 197.2 512.405 198.475 Q513.24 198.481 514.057 198.447 L513.68 182.064 Z" fill="#cbcbcb" fill-opacity="1" stroke="none"/>
 <path id="Path-23" d="M194.491 465.99 C194.491 471.872 189.723 476.64 183.841 476.64 177.959 476.64 173.191 471.872 173.191 465.99 173.191 460.108 177.959 455.34 183.841 455.34 189.723 455.34 194.491 460.108 194.491 465.99 Z" fill="#fca311" fill-opacity="1" stroke="none"/>
 <path id="Path-24" d="M734.301 560.872 L725.687 564.072 709.244 532.372 721.957 527.649 Z" fill="#ffb7b7" fill-opacity="1" stroke="none"/>
 <path id="Path-25" d="M739.599 568.405 L711.826 578.724 711.696 578.372 C709.478 572.402 712.519 565.764 718.489 563.546 L718.49 563.546 735.452 557.243 Z" fill="#2f2e41" fill-opacity="1" stroke="none"/>
 <path id="Path-26" d="M649.535 569.817 L640.346 569.816 635.975 534.374 649.536 534.375 Z" fill="#ffb7b7" fill-opacity="1" stroke="none"/>
 <path id="Path-27" d="M651.129 578.724 L621.501 578.723 621.501 578.348 C621.501 571.98 626.663 566.817 633.032 566.816 L633.034 566.816 651.129 566.817 Z" fill="#2f2e41" fill-opacity="1" stroke="none"/>
 <path id="Path-28" d="M691.604 324.011 L688.606 318.015 663.123 330.756 663.872 336.003 659 342.374 C659 342.374 650.756 346.871 652.255 361.861 L653.754 376.101 655.628 394.464 642.512 439.808 635.766 499.768 630.894 548.11 654.503 546.986 676.239 468.289 714.463 552.982 740.696 546.237 704.72 462.293 700.223 427.067 C700.223 427.067 703.221 408.329 688.98 395.588 L691.229 388.842 691.229 380.53 698.724 340.875 Z" fill="#2f2e41" fill-opacity="1" stroke="none"/>
 <path id="Path-29" d="M675.815 468.169 L692.304 409.709 693.152 409.948 676.663 468.408 Z" fill="#000000" fill-opacity="1" stroke="none"/>
 <path id="Path-30" d="M654.129 394.464 L690.854 394.464 690.854 398.211 654.129 398.211 Z" fill="#3f3d56" fill-opacity="1" stroke="none"/>
 <path id="Path-31" d="M655.628 396.712 C655.628 398.782 654.957 400.46 654.129 400.46 653.301 400.46 652.63 398.782 652.63 396.712 652.63 394.642 653.301 392.965 654.129 392.965 654.957 392.965 655.628 394.642 655.628 396.712 Z" fill="#3f3d56" fill-opacity="1" stroke="none"/>
 <path id="Path-32" d="M688.22 287.205 C693.513 296.887 689.955 309.025 680.273 314.318 670.592 319.61 658.453 316.052 653.161 306.371 647.868 296.689 651.426 284.55 661.108 279.258 670.789 273.966 682.928 277.524 688.22 287.205 Z" fill="#ffb7b7" fill-opacity="1" stroke="none"/>
 <path id="Path-33" d="M718.936 271.982 C718.936 281.743 711.023 289.656 701.262 289.656 691.501 289.656 683.588 281.743 683.588 271.982 683.588 262.221 691.501 254.308 701.262 254.308 711.023 254.308 718.936 262.221 718.936 271.982 Z" fill="#2f2e41" fill-opacity="1" stroke="none"/>
 <path id="Path-34" d="M723.69 270.089 C725.591 276.474 723.74 283.385 718.903 287.965 714.066 292.546 707.065 294.018 700.793 291.773 694.521 289.527 690.044 283.946 689.213 277.337 691.839 286.153 700.787 291.481 709.789 289.589 718.791 287.696 724.837 279.216 723.69 270.089 Z" fill="#2f2e41" fill-opacity="1" stroke="none"/>
 <path id="Path-35" d="M653.867 291.241 C652.801 300.634 658.173 309.573 666.968 313.039 675.763 316.506 685.789 313.636 691.418 306.042 697.047 298.447 696.877 288.02 691.003 280.613 685.129 273.207 675.014 270.667 666.337 274.418 662.847 271.604 658.519 272.476 655.001 275.447 651.023 278.806 649.842 281.113 646.757 286.637 649.791 287.063 650.833 290.815 653.867 291.241 Z" fill="#2f2e41" fill-opacity="1" stroke="none"/>
 <path id="Path-36" d="M727.304 351.322 C727.08 357.243 726.637 368.896 726.637 369.491 726.637 370.118 717.802 388.411 713.985 396.284 L713.985 396.288 C713.714 396.843 713.47 397.346 713.254 397.789 712.652 399.037 711.378 399.82 709.993 399.794 L693.313 399.494 C691.408 399.462 689.867 397.933 689.819 396.029 L687.959 322.645 C687.946 322.156 688.132 321.683 688.473 321.332 688.814 320.982 689.282 320.784 689.771 320.784 L711.282 320.784 C713.136 320.785 714.827 321.846 715.634 323.515 L725.958 344.874 C726.926 346.881 727.388 349.095 727.304 351.322 Z" fill="#fca311" fill-opacity="1" stroke="none"/>
 <path id="Path-37" d="M689.529 390.993 C685.249 388.399 681.403 385.149 678.132 381.361 670.532 372.813 665.909 362.03 664.959 350.631 664.111 340.878 666.046 333.629 670.711 329.084 676.64 323.307 684.711 324.146 685.051 324.185 L685.413 324.226 690.88 328.853 689.333 330.681 684.441 326.542 C682.943 326.467 676.829 326.45 672.363 330.819 668.252 334.84 666.564 341.436 667.346 350.424 668.25 361.277 672.639 371.546 679.86 379.699 682.975 383.302 686.626 386.404 690.685 388.895 Z" fill="#fca311" fill-opacity="1" stroke="none"/>
 <path id="Path-38" d="M691.423 369.099 L720.568 363.113 720.729 363.895 691.584 369.881 Z" fill="#3f3d56" fill-opacity="1" stroke="none"/>
 <path id="Path-39" d="M700.561 320.8 L701.359 320.768 703.252 367.143 702.454 367.175 Z" fill="#3f3d56" fill-opacity="1" stroke="none"/>
 <path id="Path-40" d="M727.304 351.322 C727.08 357.243 726.637 368.896 726.637 369.491 726.637 370.118 717.802 388.411 713.985 396.284 L721.099 354.975 C721.66 351.739 723.919 349.056 727.012 347.952 727.251 349.059 727.349 350.191 727.304 351.322 Z" fill="#3f3d56" fill-opacity="1" stroke="none"/>
 <path id="Path-41" d="M683.593 437.895 C684.868 436.252 685.35 434.128 684.909 432.095 684.468 430.063 683.149 428.33 681.307 427.363 L682.753 411.368 673.247 408.119 671.523 430.736 C670.072 434.009 671.299 437.85 674.378 439.676 677.458 441.503 681.416 440.737 683.593 437.895 Z" fill="#ffb7b7" fill-opacity="1" stroke="none"/>
 <path id="Path-42" d="M684.835 422.418 L667.991 421.807 668.704 340.577 C668.679 335.863 671.67 331.661 676.132 330.141 678.165 329.465 680.362 329.463 682.397 330.135 687.143 331.742 690.197 336.362 689.815 341.359 Z" fill="#cbcbcb" fill-opacity="1" stroke="none"/>
 <path id="Path-43" d="M832.6 582 L497.013 582 C496.527 582 496.133 580.934 496.133 579.619 496.133 578.304 496.527 577.238 497.013 577.238 L832.6 577.238 C833.086 577.238 833.481 578.304 833.481 579.619 833.481 580.934 833.086 582 832.6 582 Z" fill="#cbcbcb" fill-opacity="1" stroke="none"/>
</svg>
