<?xml version="1.0" encoding="UTF-8"?>
<svg width="2019px" height="1065px" viewBox="0 0 2019 1065" xmlns="http://www.w3.org/2000/svg" xmlns:xlink="http://www.w3.org/1999/xlink" version="1.1">
 <!-- Generated by Pixelmator Pro 2.0.5 -->
 <g id="New-Group">
  <path id="aabd4afe-642c-4327-a3f2-08ec89276309-3963-copy" d="M937.558 982.135 C937.558 982.135 924.805 950.744 963.063 927.201 Z" fill="#f0f0f0" fill-opacity="1" stroke="none"/>
  <path id="e302a207-98de-4798-aedc-79a63cff2427-3964-copy" d="M921.874 981.564 C921.874 981.564 917.984 959.19 887.874 959.382 Z" fill="#f0f0f0" fill-opacity="1" stroke="none"/>
  <path id="e16a8a0b-115e-4877-a9d6-27a72cf85b73-3965-copy" d="M200.558 980.135 C200.558 980.135 187.805 948.744 226.063 925.201 Z" fill="#f0f0f0" fill-opacity="1" stroke="none"/>
  <path id="b0706b48-08e0-43ea-ab25-36cfaee90c12-3966-copy" d="M184.874 979.564 C184.874 979.564 180.984 957.19 150.874 957.382 Z" fill="#f0f0f0" fill-opacity="1" stroke="none"/>
  <path id="Path-copy-7" d="M300.907 666.031 C300.907 727.253 251.276 776.883 190.054 776.883 128.831 776.883 79.201 727.253 79.201 666.031 79.201 604.808 128.831 555.178 190.054 555.178 251.276 555.178 300.907 604.808 300.907 666.031 Z" fill="#f0f0f0" fill-opacity="1" stroke="none"/>
  <path id="Path-copy-6" d="M190.358 666.03 L190.663 666.03 196.145 980.317 184.572 980.317 Z" fill="#f0f0f0" fill-opacity="1" stroke="none"/>
  <path id="Path-copy-5" d="M516.907 753.085 C516.907 797.739 480.708 833.938 436.054 833.938 391.4 833.938 355.201 797.739 355.201 753.085 355.201 708.432 391.4 672.233 436.054 672.233 480.708 672.233 516.907 708.432 516.907 753.085 Z" fill="#f0f0f0" fill-opacity="1" stroke="none"/>
  <path id="Path-copy-4" d="M436.276 753.085 L436.498 753.085 440.496 982.317 432.055 982.317 Z" fill="#f0f0f0" fill-opacity="1" stroke="none"/>
  <path id="Path-copy-3" d="M484.201 459.976 C484.201 561.583 401.832 643.951 300.225 643.951 198.618 643.951 116.249 561.583 116.249 459.976 116.249 358.369 198.618 276 300.225 276 401.832 276 484.201 358.369 484.201 459.976 Z" fill="#e4e4e4" fill-opacity="1" stroke="none"/>
  <path id="Path-copy-2" d="M436.067 337.094 C471.511 420.004 441.648 516.384 365.535 564.728 289.422 613.073 189.489 599.135 129.509 531.809 158.155 598.827 223.661 642.618 296.54 643.471 369.419 644.324 435.931 602.078 466.138 535.749 496.345 469.419 484.552 391.512 436.067 337.094 Z" fill="#000000" fill-opacity="0.104" stroke="none"/>
  <path id="Path-copy-1" d="M299.72 459.975 L299.214 459.975 290.116 981.577 309.323 981.577 Z" fill="#e4e4e4" fill-opacity="1" stroke="none"/>
  <path id="Path-copy" d="M1893.534 981.802 L479.617 981.802 126.119 981.802 C124.949 981.802 124 980.682 124 979.302 124 977.921 124.949 976.802 126.119 976.802 L1893.534 976.802 C1894.705 976.802 1895.654 977.921 1895.654 979.302 1895.654 980.682 1894.705 981.802 1893.534 981.802 Z" fill="#cacaca" fill-opacity="1" stroke="none"/>
 </g>
 <g id="New-Group-1">
  <path id="Path-copy-21" d="M887.84 590.11 L548.349 590.11 548.349 250.619 887.84 250.619 Z" fill="#ffffff" fill-opacity="1" stroke="none"/>
  <path id="Path-copy-20" d="M887.84 590.11 L548.349 590.11 548.349 250.619 887.84 250.619 Z M553.365 585.094 L882.824 585.094 882.824 255.635 553.365 255.635 Z" fill="#f0f0f0" fill-opacity="1" stroke="none"/>
  <path id="Path-copy-19" d="M618.347 396.561 L836.073 396.561 836.073 404.247 618.347 404.247 Z" fill="#fca311" fill-opacity="1" stroke="none"/>
  <path id="Path-copy-18" d="M618.347 416.545 L836.073 416.545 836.073 424.23 618.347 424.23 Z" fill="#fca311" fill-opacity="1" stroke="none"/>
  <path id="Path-copy-17" d="M618.347 436.528 L836.073 436.528 836.073 444.214 618.347 444.214 Z" fill="#fca311" fill-opacity="1" stroke="none"/>
  <path id="Path-copy-16" d="M610.147 401.53 C610.147 404.301 607.901 406.546 605.131 406.546 602.361 406.546 600.115 404.301 600.115 401.53 600.115 398.76 602.361 396.514 605.131 396.514 607.901 396.514 610.147 398.76 610.147 401.53 Z" fill="#fca311" fill-opacity="1" stroke="none"/>
  <path id="Path-copy-15" d="M618.347 310.454 L836.073 310.454 836.073 318.14 618.347 318.14 Z" fill="#f0f0f0" fill-opacity="1" stroke="none"/>
  <path id="Path-copy-14" d="M618.347 330.437 L836.073 330.437 836.073 338.123 618.347 338.123 Z" fill="#f0f0f0" fill-opacity="1" stroke="none"/>
  <path id="Path-copy-13" d="M618.347 350.421 L836.073 350.421 836.073 358.107 618.347 358.107 Z" fill="#f0f0f0" fill-opacity="1" stroke="none"/>
  <path id="Path-copy-12" d="M610.147 314.587 C610.147 317.357 607.901 319.603 605.131 319.603 602.361 319.603 600.115 317.357 600.115 314.587 600.115 311.817 602.361 309.571 605.131 309.571 607.901 309.571 610.147 311.817 610.147 314.587 Z" fill="#f0f0f0" fill-opacity="1" stroke="none"/>
  <path id="Path-copy-11" d="M618.347 483.505 L836.073 483.505 836.073 491.19 618.347 491.19 Z" fill="#f0f0f0" fill-opacity="1" stroke="none"/>
  <path id="Path-copy-10" d="M618.347 503.488 L836.073 503.488 836.073 511.174 618.347 511.174 Z" fill="#f0f0f0" fill-opacity="1" stroke="none"/>
  <path id="Path-copy-9" d="M618.347 523.471 L836.073 523.471 836.073 531.157 618.347 531.157 Z" fill="#f0f0f0" fill-opacity="1" stroke="none"/>
  <path id="Path-copy-8" d="M610.147 487.638 C610.147 490.408 607.901 492.653 605.131 492.653 602.361 492.653 600.115 490.408 600.115 487.638 600.115 484.867 602.361 482.622 605.131 482.622 607.901 482.622 610.147 484.867 610.147 487.638 Z" fill="#e5e5e5" fill-opacity="1" stroke="none"/>
  <path id="afd00def-263c-4571-9f5d-7c41b30310dc-6313-copy" d="M558.078 366 L360.544 366 C357.585 365.993 355.186 361.087 355.183 355.03 L355.183 208.076 C355.183 202.02 357.585 197.115 360.544 197.105 L558.078 197.105 C561.037 197.113 563.436 202.019 563.439 208.076 L563.439 355.029 C563.436 361.085 561.033 365.993 558.078 366 Z" fill="#ffffff" fill-opacity="1" stroke="none"/>
  <path id="e92130d0-80d8-429c-a3ca-73c1ffe05a6e-6314-copy" d="M558.078 366 L360.544 366 C357.585 365.993 355.186 361.087 355.183 355.03 L355.183 208.076 C355.183 202.02 357.585 197.115 360.544 197.105 L558.078 197.105 C561.037 197.113 563.436 202.019 563.439 208.076 L563.439 355.029 C563.436 361.085 561.033 365.993 558.078 366 Z M360.544 201.493 C358.768 201.493 357.329 204.442 357.327 208.076 L357.327 355.029 C357.327 358.662 358.768 361.607 360.544 361.611 L558.078 361.611 C559.854 361.611 561.293 358.663 561.295 355.029 L561.295 208.076 C561.295 204.442 559.854 201.497 558.078 201.493 Z" fill="#e6e6e6" fill-opacity="1" stroke="none"/>
  <path id="Path-copy-7-1" d="M503.164 243.015 C494.374 233.682 482.273 228.171 469.463 227.665 L469.463 276.715 Z" fill="#3f3d56" fill-opacity="1" stroke="none"/>
  <path id="Path-copy-6-1" d="M503.164 249.122 L469.463 282.823 516.561 282.823 C516.577 270.288 511.782 258.225 503.164 249.122 Z" fill="#e4e4e4" fill-opacity="1" stroke="none"/>
  <path id="Path-copy-5-1" d="M516.611 286.348 C516.613 289.406 516.33 292.457 515.766 295.462 515.722 295.698 515.676 295.934 515.627 296.169 514.564 301.411 512.644 306.441 509.946 311.059 509.802 311.306 509.654 311.554 509.506 311.797 L509.506 311.799 C506.846 316.175 503.52 320.11 499.648 323.461 499.456 323.629 499.264 323.794 499.07 323.957 490.748 330.958 480.329 334.984 469.462 335.398 L469.462 286.348 Z" fill="#f0f0f0" fill-opacity="1" stroke="none"/>
  <path id="Path-copy-4-1" d="M464.698 335.441 C465.35 335.441 465.998 335.424 466.644 335.399 L466.644 286.346 430.971 322.019 C440.076 330.653 452.151 335.457 464.698 335.441 Z" fill="#cacaca" fill-opacity="1" stroke="none"/>
  <path id="Path-copy-3-1" d="M464.765 233.729 C451.744 233.729 439.257 238.901 430.05 248.108 420.843 257.315 415.671 269.802 415.671 282.823 L466.762 282.823 466.762 233.772 C466.099 233.746 465.434 233.729 464.765 233.729 Z" fill="#fca311" fill-opacity="1" stroke="none"/>
  <path id="Path-copy-2-1" d="M453.052 286.348 L442.731 296.669 442.393 297.007 442.386 297.014 433.385 306.013 433.042 306.355 423.318 316.08 422.975 316.422 422.975 316.425 417.379 322.019 C407.556 312.756 401.995 299.848 402.011 286.348 Z" fill="#fca311" fill-opacity="1" stroke="none"/>
  <path id="Path-copy-1-1" d="M618.913 420.547 L470.698 420.547 470.698 355.559 472.978 355.559 472.978 418.266 618.913 418.266 Z" fill="#3f3d56" fill-opacity="1" stroke="none"/>
  <path id="Path-copy-1" d="M484.379 366.089 C484.379 373.016 478.764 378.63 471.838 378.63 464.911 378.63 459.296 373.016 459.296 366.089 459.296 359.163 464.911 353.548 471.838 353.548 478.764 353.548 484.379 359.163 484.379 366.089 Z" fill="#3f3d56" fill-opacity="1" stroke="none"/>
 </g>
 <g id="New-Group-2">
  <path id="Path-copy-7-2" d="M1625.259 142.468 C1623.366 153.3 1617.438 163.011 1608.669 169.643 1608.004 170.153 1607.311 170.638 1606.612 171.101 1587.419 150.093 1566.885 130.349 1545.141 111.994 1545.575 111.288 1546.026 110.596 1546.506 109.919 1558.223 93.132 1580.034 86.748 1598.954 94.567 1617.873 102.387 1628.813 122.307 1625.259 142.468 Z" fill="#ff6584" fill-opacity="1" stroke="none"/>
  <path id="Path-copy-6-2" d="M1644.691 236.069 L1644.572 236.511 Q1602.691 226.116 1560.823 215.712 C1540.655 210.704 1519.811 205.382 1503.475 192.537 1497.272 187.665 1491.466 181.598 1483.759 179.889 1474.2 177.76 1464.606 183.017 1456.757 188.88 1410.354 223.603 1387.824 285.234 1337.552 314.056 1377.214 250.763 1421.83 190.715 1470.983 134.474 1480.062 124.082 1490.589 113.132 1504.306 111.639 1517.394 110.21 1529.2 117.748 1539.465 126.558 1541.664 128.448 1543.79 130.398 1545.839 132.324 Q1569.272 154.337 1591.603 177.524 1619.029 205.969 1644.691 236.069 Z" fill="#f2f2f2" fill-opacity="1" stroke="none"/>
  <path id="Path-copy-5-2" d="M1720.539 340.442 C1697.848 292.473 1669.619 247.327 1636.429 205.923 Q1622.116 188.051 1606.612 171.101 C1587.419 150.093 1566.885 130.349 1545.141 111.994 Q1534.441 102.974 1523.364 94.453 C1517.624 90.054 1511.425 85.863 1504.054 85.047 1498.878 84.583 1493.677 85.597 1489.055 87.971 1478.946 92.931 1471.215 102.099 1464.617 110.972 1458.839 118.754 1453.32 126.758 1447.731 134.697 1445.354 138.076 1442.979 141.446 1440.548 144.784 Q1427.818 162.335 1414.686 179.599 1397.762 201.845 1380.175 223.594 1343.223 269.315 1303.498 312.663 1245.107 376.375 1181.095 434.608 C1175.862 439.358 1173.879 440.326 1168.593 445.024 1167.37 446.126 1165.91 444.016 1167.121 442.922 1211.206 403.714 1250.185 366.2 1290.427 323.04 Q1335.938 274.227 1377.947 222.274 1391.431 205.613 1404.526 188.647 1425.721 161.178 1445.919 132.946 1451.244 125.516 1456.499 118.012 C1467.627 102.135 1483.924 78.481 1506.575 82.835 1513.236 84.113 1518.959 87.912 1524.281 91.938 1529.701 96.054 1534.977 100.34 1540.235 104.675 Q1543.391 107.269 1546.506 109.919 1558.858 120.342 1570.683 131.362 1590.418 149.743 1608.671 169.642 1617.335 179.091 1625.637 188.837 C1660.362 229.641 1690.163 274.391 1714.425 322.163 Q1718.817 330.796 1722.939 339.558 C1723.643 341.051 1721.235 341.923 1720.539 340.442 Z" fill="#e4e4e4" fill-opacity="1" stroke="none"/>
  <path id="Path-copy-4-2" d="M1640.918 193.613 C1642.497 192.374 1644.068 191.134 1645.656 189.898 1658.173 180.16 1671.431 170.692 1686.986 166.587 1694.42 164.53 1702.213 164.115 1709.824 165.37 1717.624 166.967 1725.054 170.015 1731.729 174.355 1734.917 176.331 1737.998 178.477 1741.009 180.716 1744.449 183.281 1747.799 185.961 1751.129 188.654 Q1760.506 196.237 1769.524 204.276 1787.468 220.273 1803.815 237.947 1812.289 247.112 1820.273 256.694 1827.7 265.597 1834.705 274.832 C1835.704 276.144 1837.801 274.676 1836.801 273.364 1835.572 271.735 1834.324 270.11 1833.073 268.503 Q1827.773 261.692 1822.233 255.063 1812.133 242.959 1801.282 231.519 1784.41 213.722 1765.858 197.64 1756.586 189.608 1746.938 182.047 C1744.995 180.526 1743.023 179.025 1741.016 177.579 1736.48 174.19 1731.679 171.173 1726.658 168.555 1719.557 164.791 1711.726 162.603 1703.701 162.141 1695.916 161.907 1688.156 163.147 1680.832 165.797 1665.317 171.201 1652.211 181.475 1639.451 191.508 1638.161 192.529 1639.62 194.632 1640.918 193.613 Z" fill="#e4e4e4" fill-opacity="1" stroke="none"/>
  <path id="Path-copy-3-2" d="M1330.377 262.632 L1298.718 244.287 1282.999 235.178 C1277.956 232.035 1272.755 229.152 1267.418 226.54 1262.749 224.269 1257.517 223.415 1252.369 224.084 1247.734 224.927 1243.316 226.694 1239.378 229.279 1235.367 231.848 1231.552 234.71 1227.964 237.843 1223.53 241.594 1219.142 245.401 1214.741 249.19 Q1187.495 272.649 1160.5 296.397 1133.505 320.145 1106.765 344.179 1079.96 368.273 1053.414 392.653 1050.162 395.64 1046.914 398.631 C1045.718 399.732 1043.748 398.091 1044.961 396.974 Q1071.716 372.338 1098.733 347.989 1125.816 323.582 1153.162 299.469 1180.507 275.356 1208.112 251.54 1214.99 245.607 1221.883 239.692 C1225.759 236.366 1229.607 232.992 1233.745 229.989 1241.341 224.478 1250.402 220.022 1260.037 221.556 1265.703 222.459 1270.853 225.215 1275.766 228.039 1281.063 231.083 1286.34 234.164 1291.626 237.227 L1323.506 255.7 1331.477 260.318 C1332.891 261.138 1331.808 263.461 1330.377 262.632 Z" fill="#e4e4e4" fill-opacity="1" stroke="none"/>
  <path id="Path-copy-2-2" d="M1688.869 181.949 C1707.625 176.143 1729.344 181.757 1743.201 195.587 1712.139 195.472 1681.098 197.174 1650.235 200.682 1663.675 195.692 1675.175 186.189 1688.869 181.949 Z" fill="#f2f2f2" fill-opacity="1" stroke="none"/>
  <path id="Path-copy-1-2" d="M1743.375 195.586 L1746.212 198.861 C1745.258 197.722 1744.249 196.633 1743.201 195.587 1743.259 195.587 1743.317 195.586 1743.375 195.586 Z" fill="#f2f2f2" fill-opacity="1" stroke="none"/>
  <path id="Path-copy-2" d="M1237.67 246.413 C1241.717 242.945 1246.067 239.334 1251.34 238.566 L1255.96 239.57 C1209.513 295.901 1152.044 342.147 1087.08 375.467 Q1162.375 310.94 1237.67 246.413 Z" fill="#f2f2f2" fill-opacity="1" stroke="none"/>
 </g>
 <g id="New-Group-3">
  <g id="New-Group-4">
   <g id="New-Group-5">
    <path id="Path" d="M762.3 342.399 L1465.876 342.399 1465.876 793 762.3 793 Z" fill="#e6e6e6" fill-opacity="1" stroke="none"/>
    <path id="Path-1" d="M782.419 398.915 L1445.757 398.915 1445.757 570.688 782.419 570.688 Z" fill="#ffffff" fill-opacity="1" stroke="none"/>
    <path id="Path-copy-16-1" d="M1177.617 439.406 C1177.617 442.412 1175.18 444.849 1172.174 444.849 1169.168 444.849 1166.731 442.412 1166.731 439.406 1166.731 436.4 1169.168 433.963 1172.174 433.963 1175.18 433.963 1177.617 436.4 1177.617 439.406 Z" fill="#ffffff" fill-opacity="1" stroke="none"/>
    <path id="Path-2" d="M869.418 423.727 L1009.699 423.727 1009.699 431.78 869.418 431.78 Z" fill="#e6e6e6" fill-opacity="1" stroke="none"/>
    <path id="Path-3" d="M869.418 453.101 L1070.043 453.101 1070.043 461.154 869.418 461.154 Z" fill="#fca311" fill-opacity="1" stroke="none"/>
    <path id="Path-4" d="M869.418 480.776 L1037.963 480.776 1037.963 488.828 869.418 488.828 Z" fill="#e6e6e6" fill-opacity="1" stroke="none"/>
    <path id="Path-5" d="M869.418 508.346 L972.482 508.346 972.482 516.398 869.418 516.398 Z" fill="#e6e6e6" fill-opacity="1" stroke="none"/>
    <path id="Path-6" d="M869.418 535.915 L1019.968 535.915 1019.968 543.968 869.418 543.968 Z" fill="#e6e6e6" fill-opacity="1" stroke="none"/>
    <path id="Path-7" d="M805.481 420.864 L822.658 420.864 822.658 438.042 805.481 438.042 Z" fill="#e6e6e6" fill-opacity="1" stroke="none"/>
    <path id="Path-8" d="M805.481 448.539 L822.658 448.539 822.658 465.716 805.481 465.716 Z" fill="#fca311" fill-opacity="1" stroke="none"/>
    <path id="Path-9" d="M805.481 476.213 L822.658 476.213 822.658 493.391 805.481 493.391 Z" fill="#e6e6e6" fill-opacity="1" stroke="none"/>
    <path id="Path-10" d="M805.481 503.888 L822.658 503.888 822.658 521.065 805.481 521.065 Z" fill="#e6e6e6" fill-opacity="1" stroke="none"/>
    <path id="Path-11" d="M805.481 531.562 L822.658 531.562 822.658 548.74 805.481 548.74 Z" fill="#e6e6e6" fill-opacity="1" stroke="none"/>
    <path id="Path-12" d="M782.419 594.546 L1445.757 594.546 1445.757 766.319 782.419 766.319 Z" fill="#ffffff" fill-opacity="1" stroke="none"/>
    <path id="Path-13" d="M1111.724 649.375 C1101.104 631.395 1082.496 619.607 1061.702 617.686 1040.907 615.765 1020.455 623.945 1006.721 639.675 L1002.535 636.018 C1017.44 618.939 1039.64 610.058 1062.212 612.143 1084.784 614.227 1104.982 627.025 1116.508 646.544 Z" fill="#e6e6e6" fill-opacity="1" stroke="none"/>
    <path id="Path-14" d="M1114.344 721.794 L1109.73 718.692 C1123.675 697.894 1124.45 670.94 1111.724 649.375 L1116.508 646.544 C1130.326 669.954 1129.485 699.217 1114.344 721.794 Z" fill="#fca311" fill-opacity="1" stroke="none"/>
    <path id="Path-15" d="M1003.114 729.539 C979.336 702.983 979.087 662.866 1002.535 636.018 L1006.721 639.675 C985.121 664.409 985.35 701.365 1007.255 725.83 Z" fill="#fca311" fill-opacity="1" stroke="none"/>
    <path id="Path-16" d="M1055.714 753.052 C1035.638 753.037 1016.514 744.488 1003.114 729.539 L1007.255 725.83 C1020.649 740.794 1040.204 748.732 1060.239 747.336 1080.274 745.94 1098.54 735.368 1109.73 718.692 L1114.344 721.794 C1101.237 741.339 1079.247 753.063 1055.714 753.052 Z" fill="#fca311" fill-opacity="1" stroke="none"/>
    <path id="Path-17" d="M762 342 L1465.576 342 1465.576 371.89 762 371.89 Z" fill="#fca311" fill-opacity="1" stroke="none"/>
    <path id="Path-18" d="M789.752 357.282 C789.752 360.341 787.272 362.822 784.212 362.822 781.153 362.822 778.672 360.341 778.672 357.282 778.672 354.222 781.153 351.742 784.212 351.742 787.272 351.742 789.752 354.222 789.752 357.282 Z" fill="#ffffff" fill-opacity="1" stroke="none"/>
    <path id="Path-19" d="M810.781 357.282 C810.781 360.341 808.3 362.822 805.241 362.822 802.181 362.822 799.701 360.341 799.701 357.282 799.701 354.222 802.181 351.742 805.241 351.742 808.3 351.742 810.781 354.222 810.781 357.282 Z" fill="#ffffff" fill-opacity="1" stroke="none"/>
    <path id="Path-20" d="M831.809 357.282 C831.809 360.341 829.328 362.822 826.269 362.822 823.209 362.822 820.729 360.341 820.729 357.282 820.729 354.222 823.209 351.742 826.269 351.742 829.328 351.742 831.809 354.222 831.809 357.282 Z" fill="#ffffff" fill-opacity="1" stroke="none"/>
   </g>
   <g id="New-Group-6">
    <path id="Path-copy-11-1" d="M1137 742.019 L1375.614 742.019 1375.614 621.222 1137 621.222 Z" fill="#ffffff" fill-opacity="1" stroke="none"/>
    <path id="Path-copy-10-1" d="M1179.841 661.871 L1204.148 661.871 1204.148 663.896 1179.841 663.896 Z" fill="#fca311" fill-opacity="1" stroke="none"/>
    <path id="Path-copy-9-1" d="M1212.25 661.871 L1236.557 661.871 1236.557 663.896 1212.25 663.896 Z" fill="#fca311" fill-opacity="1" stroke="none"/>
    <path id="Path-copy-8-1" d="M1259.345 680.607 L1283.652 680.607 1283.652 682.633 1259.345 682.633 Z" fill="#fca311" fill-opacity="1" stroke="none"/>
    <path id="Path-copy-7-3" d="M1292.261 680.607 L1316.568 680.607 1316.568 682.633 1292.261 682.633 Z" fill="#fca311" fill-opacity="1" stroke="none"/>
    <path id="Path-copy-6-3" d="M1245.166 661.871 L1316.568 661.871 1316.568 663.896 1245.166 663.896 Z" fill="#fca311" fill-opacity="1" stroke="none"/>
    <path id="Path-copy-5-3" d="M1179.841 680.607 L1251.243 680.607 1251.243 682.633 1179.841 682.633 Z" fill="#fca311" fill-opacity="1" stroke="none"/>
    <path id="Path-copy-4-3" d="M1179.841 699.344 L1251.243 699.344 1251.243 701.37 1179.841 701.37 Z" fill="#fca311" fill-opacity="1" stroke="none"/>
    <path id="Path-copy-3-3" d="M1266.941 699.344 L1316.568 699.344 1316.568 701.37 1266.941 701.37 Z" fill="#fca311" fill-opacity="1" stroke="none"/>
    <path id="Path-copy-2-3" d="M1173.009 670.422 L1164.457 661.871 1173.009 653.319 1174.72 655.03 1167.879 661.871 1174.72 668.711 Z" fill="#fca311" fill-opacity="1" stroke="none"/>
    <path id="Path-copy-1-3" d="M1339.605 709.921 L1337.894 708.21 1344.734 701.369 1337.894 694.528 1339.605 692.818 1348.156 701.369 Z" fill="#fca311" fill-opacity="1" stroke="none"/>
    <path id="Path-copy-3" d="M1325.537 709.121 L1330.602 692.41 1332.918 693.112 1327.853 709.823 Z" fill="#fca311" fill-opacity="1" stroke="none"/>
   </g>
  </g>
  <g id="Orange-chart">
   <path id="Path-copy-24" d="M1408.201 414.253 L1120.657 414.253 C1107.88 414.27 1097.528 422.608 1097.506 432.899 L1097.506 537.354 C1097.503 538.462 1097.631 539.568 1097.887 540.657 1097.978 541.153 1098.123 541.635 1098.268 542.118 1100.976 550.29 1110.156 555.981 1120.657 556 L1408.201 556 C1408.673 556 1409.144 555.985 1409.598 555.956 L1409.925 555.956 1409.925 555.942 C1410.016 555.944 1410.107 555.939 1410.197 555.927 1410.287 555.927 1410.396 555.912 1410.487 555.912 1410.518 555.915 1410.55 555.91 1410.578 555.898 1410.777 555.883 1410.977 555.869 1411.158 555.854 1411.485 555.81 1411.811 555.781 1412.12 555.737 1412.16 555.725 1412.204 555.72 1412.247 555.722 1412.303 555.7 1412.366 555.69 1412.428 555.693 1412.443 555.682 1412.463 555.677 1412.483 555.679 1412.682 555.649 1412.882 555.62 1413.082 555.576 1413.192 555.564 1413.301 555.544 1413.408 555.518 1413.807 555.445 1414.206 555.372 1414.588 555.269 1414.769 555.226 1414.932 555.196 1415.114 555.153 1415.349 555.094 1415.604 555.021 1415.839 554.948 1415.963 554.92 1416.084 554.886 1416.202 554.846 1416.231 554.845 1416.257 554.834 1416.275 554.816 1416.799 554.667 1417.314 554.497 1417.817 554.305 1418.253 554.144 1418.67 553.969 1419.087 553.794 1419.25 553.735 1419.396 553.662 1419.559 553.589 1419.599 553.575 1419.636 553.555 1419.668 553.531 1420.085 553.326 1420.502 553.121 1420.901 552.931 1420.92 552.917 1420.92 552.902 1420.938 552.902 1420.943 552.902 1420.947 552.901 1420.951 552.898 1420.954 552.895 1420.956 552.891 1420.956 552.888 1421.383 552.672 1421.795 552.438 1422.19 552.186 L1422.208 552.186 C1422.317 552.113 1422.407 552.055 1422.498 551.996 1422.625 551.923 1422.752 551.835 1422.861 551.762 1423.079 551.616 1423.297 551.47 1423.496 551.324 1423.619 551.249 1423.735 551.166 1423.841 551.076 1424.149 550.856 1424.44 550.622 1424.73 550.389 1424.885 550.269 1425.03 550.143 1425.165 550.009 1425.391 549.834 1425.603 549.649 1425.8 549.453 1425.982 549.263 1426.181 549.073 1426.363 548.884 1426.578 548.684 1426.778 548.474 1426.962 548.255 1427.288 547.904 1427.578 547.554 1427.869 547.174 1428.105 546.867 1428.341 546.545 1428.558 546.224 1428.667 546.063 1428.776 545.888 1428.885 545.712 1428.903 545.712 1428.903 545.698 1428.903 545.683 1429.103 545.376 1429.284 545.069 1429.447 544.748 1429.52 544.616 1429.592 544.5 1429.647 544.368 1429.792 544.12 1429.901 543.857 1430.028 543.594 1430.227 543.111 1430.427 542.614 1430.59 542.118 1430.735 541.635 1430.881 541.153 1430.971 540.656 1431.227 539.568 1431.355 538.462 1431.352 537.354 L1431.352 432.899 C1431.33 422.608 1420.978 414.27 1408.201 414.253 Z" fill="#fca311" fill-opacity="1" stroke="none"/>
   <path id="Path-copy-22" d="M1097.506 436.406 L1431.352 436.406 1431.352 438.22 1097.506 438.22 Z" fill="#ffffff" fill-opacity="1" stroke="none"/>
   <path id="Path-copy-21-1" d="M1097.506 456.364 L1431.352 456.364 1431.352 458.178 1097.506 458.178 Z" fill="#ffffff" fill-opacity="1" stroke="none"/>
   <path id="Path-copy-20-1" d="M1097.506 476.322 L1431.352 476.322 1431.352 478.137 1097.506 478.137 Z" fill="#ffffff" fill-opacity="1" stroke="none"/>
   <path id="Path-copy-19-1" d="M1097.506 496.28 L1431.352 496.28 1431.352 498.095 1097.506 498.095 Z" fill="#ffffff" fill-opacity="1" stroke="none"/>
   <g id="-copy-2">
    <path id="Path-21" d="M1431.352 504.01 L1431.352 532.096 C1431.355 533.472 1431.227 534.845 1430.971 536.197 1430.881 536.814 1430.735 537.413 1430.59 538.011 1430.427 538.628 1430.228 539.245 1430.028 539.844 1429.901 540.17 1429.792 540.497 1429.647 540.805 1429.593 540.969 1429.52 541.114 1429.447 541.277 1429.284 541.676 1429.103 542.057 1428.903 542.438 1428.903 542.457 1428.903 542.475 1428.885 542.475 1428.776 542.692 1428.667 542.91 1428.558 543.11 1428.341 543.509 1428.105 543.908 1427.869 544.289 1427.578 544.761 1427.288 545.196 1426.962 545.632 1426.778 545.904 1426.578 546.164 1426.363 546.412 1426.181 546.648 1425.982 546.884 1425.8 547.119 1425.603 547.362 1425.391 547.592 1425.165 547.809 1425.03 547.975 1424.885 548.133 1424.73 548.281 1424.44 548.571 1424.149 548.861 1423.841 549.133 1423.735 549.246 1423.619 549.349 1423.496 549.442 1423.297 549.623 1423.079 549.805 1422.861 549.986 1422.752 550.077 1422.625 550.186 1422.498 550.277 1422.407 550.349 1422.317 550.422 1422.208 550.512 L1422.19 550.512 C1421.795 550.825 1421.383 551.116 1420.956 551.383 1420.956 551.388 1420.954 551.393 1420.951 551.396 1420.947 551.4 1420.943 551.402 1420.938 551.401 1420.92 551.401 1420.92 551.42 1420.901 551.438 1420.647 551.619 1420.375 551.782 1420.103 551.946 1419.958 552.036 1419.813 552.109 1419.668 552.182 1419.636 552.212 1419.599 552.236 1419.559 552.254 1419.396 552.345 1419.25 552.436 1419.087 552.508 1418.67 552.726 1418.253 552.944 1417.817 553.143 1417.314 553.381 1416.799 553.593 1416.275 553.778 1416.257 553.801 1416.231 553.814 1416.202 553.815 1416.084 553.865 1415.963 553.907 1415.839 553.942 1415.604 554.032 1415.349 554.123 1415.114 554.195 1414.932 554.25 1414.769 554.286 1414.587 554.341 1414.206 554.468 1413.807 554.558 1413.408 554.649 1413.301 554.682 1413.192 554.706 1413.082 554.722 1412.882 554.776 1412.682 554.812 1412.483 554.849 1412.463 554.846 1412.443 554.853 1412.428 554.867 1412.366 554.863 1412.303 554.875 1412.247 554.903 1412.204 554.9 1412.161 554.906 1412.12 554.921 1411.811 554.976 1411.485 555.012 1411.158 555.066 1410.977 555.085 1410.777 555.103 1410.578 555.121 1410.55 555.136 1410.518 555.142 1410.487 555.139 1410.287 555.157 1410.106 555.175 1409.925 555.193 L1409.888 555.193 C1409.689 555.212 1409.489 555.212 1409.29 555.23 1408.927 555.248 1408.564 555.248 1408.201 555.248 L1120.657 555.248 C1110.156 555.225 1100.976 548.158 1098.268 538.011 L1097.76 538.011 C1097.651 537.411 1097.578 536.805 1097.542 536.197 1097.524 535.852 1097.506 535.489 1097.506 535.144 L1097.506 503.502 C1101.314 503.614 1105.09 504.23 1108.737 505.334 1118.607 508.346 1128.205 513.445 1138.511 513.445 1139.327 513.445 1140.18 513.408 1141.015 513.336 1151.865 512.428 1160.302 505.697 1167.323 498.095 1167.886 497.496 1168.448 496.897 1168.974 496.281 1170.299 494.811 1171.569 493.305 1172.803 491.817 1176.745 486.839 1181.162 482.257 1185.993 478.137 1186.774 477.502 1187.554 476.903 1188.352 476.322 1193.037 472.828 1198.553 470.621 1204.355 469.917 1205.099 469.845 1205.843 469.79 1206.587 469.772 1214.352 469.536 1221.646 472.331 1228.287 476.322 1229.248 476.903 1230.21 477.502 1231.135 478.137 1234.31 480.289 1237.369 482.609 1240.298 485.086 1244.82 489.058 1249.543 492.794 1254.45 496.28 1254.813 496.534 1255.176 496.789 1255.539 497.006 1256.101 497.387 1256.682 497.75 1257.262 498.095 1262.233 501.29 1267.822 503.398 1273.664 504.282 1273.864 504.318 1274.082 504.355 1274.299 504.373 1283.752 505.479 1292.552 502.685 1300.59 498.095 1301.588 497.514 1302.604 496.915 1303.583 496.281 1309.862 492.107 1315.747 487.37 1321.165 482.128 1322.58 480.804 1324.013 479.461 1325.501 478.137 1326.173 477.538 1326.844 476.921 1327.533 476.322 1338.311 466.851 1350.739 458.178 1365.418 458.178 1366.035 458.178 1366.67 458.197 1367.305 458.233 1377.864 458.741 1387.136 463.857 1394.919 470.353 1397.181 472.229 1399.343 474.221 1401.397 476.322 1401.488 476.413 1401.56 476.485 1401.651 476.576 1402.159 477.084 1402.667 477.61 1403.139 478.137 1408.945 484.215 1414.297 490.71 1420.611 496.28 1421.301 496.915 1422.008 497.514 1422.734 498.095 1424.911 499.902 1427.215 501.552 1429.629 503.03 1430.191 503.375 1430.772 503.701 1431.352 504.01 Z" fill="#000000" fill-opacity="0.1" stroke="none"/>
   </g>
   <g id="-copy-1">
    <path id="Path-22" d="M1431.352 476.594 L1431.352 532.096 C1431.355 533.473 1431.227 534.846 1430.971 536.198 1430.881 536.814 1430.735 537.412 1430.59 538.011 1430.427 538.628 1430.228 539.245 1430.028 539.844 1429.901 540.17 1429.792 540.497 1429.647 540.805 1429.593 540.969 1429.52 541.114 1429.447 541.277 1429.284 541.676 1429.103 542.057 1428.903 542.438 1428.903 542.457 1428.903 542.475 1428.885 542.475 1428.776 542.692 1428.667 542.91 1428.558 543.11 1428.341 543.509 1428.105 543.908 1427.869 544.289 1427.578 544.761 1427.288 545.196 1426.962 545.632 1426.778 545.904 1426.578 546.164 1426.363 546.412 1426.182 546.648 1425.982 546.884 1425.8 547.119 1425.603 547.362 1425.391 547.592 1425.165 547.809 1425.03 547.975 1424.885 548.133 1424.73 548.281 1424.44 548.571 1424.149 548.861 1423.841 549.133 1423.735 549.246 1423.62 549.349 1423.496 549.442 1423.297 549.623 1423.079 549.805 1422.861 549.986 1422.752 550.077 1422.625 550.186 1422.498 550.276 1422.408 550.349 1422.317 550.422 1422.208 550.512 L1422.19 550.512 C1421.795 550.825 1421.383 551.116 1420.956 551.383 1420.956 551.388 1420.954 551.393 1420.951 551.396 1420.948 551.4 1420.943 551.402 1420.938 551.401 1420.92 551.401 1420.92 551.42 1420.902 551.438 1420.648 551.619 1420.375 551.782 1420.103 551.946 1419.958 552.036 1419.813 552.109 1419.668 552.182 1419.636 552.212 1419.599 552.236 1419.559 552.254 1419.396 552.345 1419.25 552.436 1419.087 552.508 1418.67 552.726 1418.253 552.944 1417.817 553.143 1417.314 553.381 1416.8 553.593 1416.275 553.778 1416.257 553.801 1416.231 553.814 1416.202 553.815 1416.084 553.865 1415.963 553.907 1415.839 553.941 1415.604 554.032 1415.349 554.123 1415.114 554.195 1414.932 554.25 1414.769 554.286 1414.588 554.341 1414.206 554.468 1413.807 554.558 1413.408 554.649 1413.301 554.682 1413.192 554.706 1413.082 554.722 1412.882 554.776 1412.682 554.812 1412.483 554.849 1412.463 554.846 1412.443 554.853 1412.428 554.867 1412.366 554.863 1412.303 554.875 1412.247 554.903 1412.204 554.9 1412.161 554.906 1412.12 554.921 1411.812 554.976 1411.485 555.012 1411.158 555.066 1410.977 555.084 1410.777 555.103 1410.578 555.121 1410.55 555.135 1410.518 555.142 1410.487 555.139 1410.396 555.139 1410.287 555.157 1410.197 555.157 1410.107 555.172 1410.016 555.178 1409.925 555.175 1409.847 555.191 1409.768 555.197 1409.689 555.193 L1409.598 555.193 C1409.507 555.211 1409.398 555.211 1409.29 555.23 1408.927 555.248 1408.564 555.248 1408.201 555.248 L1120.657 555.248 C1110.156 555.225 1100.976 548.158 1098.268 538.011 1098.123 537.412 1097.978 536.814 1097.887 536.197 1097.631 534.845 1097.503 533.472 1097.506 532.096 L1097.506 499.782 C1098.141 499.238 1098.758 498.675 1099.375 498.095 1100.01 497.496 1100.626 496.897 1101.243 496.281 1106.648 490.655 1111.57 484.586 1115.958 478.137 1116.103 477.937 1116.248 477.756 1116.375 477.556 1116.666 477.139 1116.956 476.74 1117.264 476.322 1121.665 469.882 1126.586 463.814 1131.979 458.179 1132.596 457.561 1133.213 456.963 1133.848 456.364 1140.597 450.014 1148.29 445.278 1157.362 444.153 1169.863 442.593 1181.494 448.381 1191.781 456.364 1192.543 456.963 1193.287 457.561 1194.031 458.178 1197.551 461.045 1200.889 464.166 1204.046 467.268 1204.881 468.103 1205.734 468.938 1206.587 469.772 1208.782 471.968 1211.032 474.163 1213.3 476.322 1213.953 476.939 1214.588 477.538 1215.241 478.137 1224.313 486.537 1234.129 493.922 1245.795 496.28 1246.594 496.444 1247.41 496.589 1248.227 496.698 1252.635 497.285 1257.109 497.144 1261.472 496.281 1262.198 496.153 1262.905 495.99 1263.631 495.809 1274.553 493.105 1284.678 486.301 1293.84 478.137 1294.493 477.538 1295.165 476.939 1295.818 476.322 1300.499 471.986 1304.944 467.341 1309.099 462.769 1310.478 461.245 1311.893 459.702 1313.309 458.178 1313.889 457.58 1314.452 456.981 1315.014 456.364 1321.087 449.746 1327.728 443.675 1334.864 438.22 1335.716 437.585 1336.569 436.986 1337.422 436.406 1347.02 429.856 1357.507 425.647 1369.028 426.318 1378.536 426.862 1387.227 430.781 1395.047 436.406 1395.845 436.986 1396.643 437.585 1397.442 438.22 1403.392 443.001 1408.823 448.395 1413.644 454.314 1414.206 454.985 1414.769 455.675 1415.331 456.364 1415.622 456.709 1415.894 457.072 1416.184 457.416 L1416.783 458.178 C1421.591 464.184 1426.218 470.425 1431.135 476.322 Z" fill="#000000" fill-opacity="0.099" stroke="none"/>
   </g>
   <g id="-copy">
    <path id="Path-23" d="M1431.02 453.633 L1431.02 531.895 C1431.022 533.268 1430.895 534.638 1430.639 535.987 1430.549 536.603 1430.404 537.2 1430.259 537.798 1430.096 538.413 1429.897 539.029 1429.698 539.627 1429.571 539.953 1429.462 540.279 1429.318 540.586 1429.263 540.749 1429.191 540.894 1429.118 541.057 1428.955 541.456 1428.774 541.836 1428.575 542.216 1428.575 542.234 1428.575 542.252 1428.557 542.252 1428.448 542.47 1428.34 542.687 1428.231 542.886 1428.014 543.284 1427.778 543.683 1427.543 544.063 1427.253 544.534 1426.964 544.968 1426.638 545.403 1426.454 545.674 1426.255 545.935 1426.04 546.182 1425.859 546.417 1425.66 546.653 1425.479 546.888 1425.282 547.13 1425.07 547.36 1424.845 547.576 1424.71 547.742 1424.565 547.899 1424.41 548.047 1424.121 548.337 1423.831 548.626 1423.523 548.898 1423.417 549.01 1423.302 549.113 1423.179 549.206 1422.98 549.387 1422.762 549.568 1422.545 549.749 1422.437 549.839 1422.31 549.948 1422.183 550.039 1422.093 550.111 1422.002 550.183 1421.893 550.274 L1421.875 550.274 C1421.481 550.586 1421.07 550.876 1420.644 551.143 1420.644 551.148 1420.642 551.153 1420.639 551.156 1420.635 551.16 1420.631 551.161 1420.626 551.161 1420.608 551.161 1420.608 551.179 1420.589 551.197 1420.336 551.379 1420.064 551.542 1419.793 551.705 1419.648 551.795 1419.503 551.867 1419.358 551.94 1419.326 551.97 1419.29 551.995 1419.25 552.012 1419.087 552.103 1418.942 552.193 1418.779 552.266 1418.362 552.483 1417.946 552.7 1417.511 552.9 1417.009 553.137 1416.496 553.349 1415.972 553.533 1415.955 553.556 1415.928 553.569 1415.9 553.57 1415.782 553.62 1415.661 553.662 1415.537 553.696 1415.302 553.787 1415.049 553.877 1414.813 553.95 1414.632 554.004 1414.469 554.04 1414.288 554.095 1413.908 554.221 1413.509 554.312 1413.111 554.402 1413.005 554.435 1412.896 554.459 1412.785 554.475 1412.586 554.529 1412.387 554.565 1412.188 554.602 1412.168 554.599 1412.148 554.606 1412.133 554.62 1412.071 554.616 1412.008 554.628 1411.952 554.656 1411.909 554.653 1411.866 554.659 1411.825 554.674 1411.518 554.728 1411.192 554.765 1410.866 554.819 1410.685 554.837 1410.485 554.855 1410.286 554.873 1410.258 554.888 1410.227 554.894 1410.196 554.891 1410.105 554.891 1409.997 554.91 1409.906 554.91 1409.816 554.924 1409.725 554.931 1409.634 554.927 1409.625 554.937 1409.612 554.944 1409.598 554.946 L1409.309 554.946 C1408.856 554.982 1408.385 555 1407.914 555 L1120.944 555 C1110.463 554.977 1101.302 547.924 1098.599 537.798 1098.454 537.2 1098.31 536.603 1098.219 535.987 1097.964 534.638 1097.836 533.268 1097.839 531.895 L1097.839 485.141 Q1100.582 481.583 1103.343 478.043 C1103.814 477.427 1104.285 476.829 1104.756 476.232 1107.237 473.045 1109.735 469.894 1112.307 466.816 1114.769 463.864 1117.359 460.949 1120.057 458.124 1120.636 457.527 1121.216 456.911 1121.813 456.313 1128.683 449.157 1136.572 443.055 1145.226 438.206 1146.404 437.554 1147.599 436.956 1148.812 436.395 1155.236 433.328 1162.187 431.515 1169.292 431.053 1178.611 430.588 1187.901 432.422 1196.344 436.395 1197.612 436.938 1198.861 437.554 1200.093 438.206 1208.947 442.769 1217.259 449.161 1225.045 456.313 1225.715 456.893 1226.349 457.509 1227.001 458.124 1233.175 463.919 1239.024 470.13 1244.601 476.232 1245.018 476.685 1245.434 477.155 1245.851 477.608 1245.977 477.753 1246.122 477.898 1246.249 478.043 1251.681 484.018 1257.476 490.066 1263.632 495.679 1263.795 495.842 1263.976 495.987 1264.157 496.15 1264.827 496.766 1265.498 497.363 1266.186 497.961 1268.612 500.116 1271.111 502.18 1273.646 504.136 1279.654 508.868 1286.2 512.873 1293.148 516.069 1294.615 516.739 1296.099 517.336 1297.602 517.879 1305.882 521.041 1314.816 522.099 1323.605 520.958 1327.642 520.399 1331.598 519.366 1335.393 517.879 1336.842 517.336 1338.254 516.721 1339.648 516.069 1348.829 511.723 1357.122 505.15 1364.981 497.961 1365.633 497.363 1366.285 496.766 1366.937 496.15 1371.409 491.949 1375.755 487.585 1380.047 483.366 1381.857 481.592 1383.704 479.799 1385.605 478.043 1386.257 477.445 1386.927 476.848 1387.597 476.232 1389.879 474.186 1392.233 472.176 1394.659 470.274 1400.591 465.421 1407.113 461.338 1414.071 458.124 1414.668 457.853 1415.284 457.599 1415.881 457.364 1416.805 456.983 1417.728 456.639 1418.652 456.313 1422.64 454.885 1426.798 453.983 1431.02 453.633 Z" fill="#000000" fill-opacity="0.104" stroke="none"/>
   </g>
   <path id="Path-copy-15-1" d="M1258.079 484.28 C1258.079 487.287 1255.642 489.724 1252.636 489.724 1249.629 489.724 1247.193 487.287 1247.193 484.28 1247.193 481.274 1249.629 478.837 1252.636 478.837 1255.642 478.837 1258.079 481.274 1258.079 484.28 Z" fill="#ffffff" fill-opacity="1" stroke="none"/>
   <path id="Path-copy-14-1" d="M1370.571 426.364 C1370.571 429.37 1368.134 431.807 1365.127 431.807 1362.121 431.807 1359.684 429.37 1359.684 426.364 1359.684 423.358 1362.121 420.921 1365.127 420.921 1368.134 420.921 1370.571 423.358 1370.571 426.364 Z" fill="#ffffff" fill-opacity="1" stroke="none"/>
  </g>
 </g>
 <g id="New-Group-7">
  <path id="Path-copy-22-1" d="M1238.336 967.793 C1234.968 920.159 1241.807 867.586 1265.16 827.265 1275.088 810.124 1287.599 795.898 1301.627 787.454 1317.808 777.714 1335.054 776.275 1351.45 778.126 1387.101 782.152 1420.481 800.019 1456.927 798.632 1473.278 798.01 1490.126 793.714 1505.649 782.877 1519.07 773.507 1531.581 759.479 1540.378 741.533 1548.893 724.425 1553.224 704.106 1552.579 684.292 1551.895 665.542 1546.497 647.315 1536.233 636.885 1526.907 627.409 1514.065 625.316 1502.268 630.302 1489.578 635.666 1479.047 649.058 1474.527 667.507 1468.887 690.523 1472.595 714.652 1477.624 735.342 1482.464 755.257 1489.085 774.252 1498.158 790.302 1506.945 805.849 1518.106 818.723 1531.436 825.667 1544.083 832.255 1558.515 833.945 1572.469 828.986 1586.87 823.847 1600.075 811.338 1609.571 793.841 1620.128 774.601 1626.212 751.477 1629.319 728.404 1632.988 701.155 1633.055 673.659 1633.493 646.534 Q1634.158 605.269 1634.004 564.125 1633.93 544.069 1633.66 524.049 C1633.623 521.263 1630.627 522.003 1630.664 524.793 1631.372 577.913 1631.478 631.368 1629.668 684.87 1628.808 710.266 1626.769 736.439 1619.607 760.966 1613.567 781.648 1603.946 801.148 1590.568 813.46 1565.038 836.956 1533.265 828.864 1513.052 805.363 1502.151 792.689 1493.78 775.946 1487.492 757.685 1480.991 738.808 1475.482 717.502 1474.805 695.396 1474.455 683.982 1475.628 672.024 1479.536 661.232 1482.549 652.931 1487.112 645.862 1492.632 640.943 1502.986 631.631 1515.989 629.645 1526.47 634.824 1538.279 640.66 1545.846 655.905 1548.531 673.494 1551.274 692.065 1548.956 712.283 1542.039 730.108 1534.754 748.925 1523.117 764.217 1510.282 774.699 1495.672 786.631 1479.516 792.249 1463.623 793.857 1427.964 797.467 1395.064 781.121 1360.756 775.046 1345.121 772.278 1328.763 771.718 1312.73 777.693 1298.44 783.068 1284.952 793.747 1273.645 808.638 1248.875 841.069 1236.599 887.116 1234.75 932.198 1234.273 944.427 1234.47 956.578 1235.339 968.536 1235.533 971.272 1238.531 970.552 1238.336 967.793 Z" fill="#e5e5e5" fill-opacity="1" stroke="none"/>
  <path id="Path-copy-21-2" d="M1227.106 966.972 L1246.106 966.972 1246.106 981.972 1227.106 981.972 Z" fill="#fca311" fill-opacity="1" stroke="none"/>
  <g id="New-Group-8">
   <path id="Path-copy-20-2" d="M1457.065 522.016 L1681.232 522.016 C1723.697 522.016 1758.122 497.812 1758.122 455.346 L1758.122 455.346 C1758.122 412.881 1723.697 395.181 1681.232 395.181 L1610.845 395.181 C1525.915 395.181 1457.065 437.085 1457.065 522.016 Z" fill="#ffffff" fill-opacity="1" stroke="none"/>
   <path id="Path-copy-19-2" d="M1681.232 524 L1455.08 524 1455.08 522.016 C1455.08 481.38 1470.927 447.891 1500.907 425.168 1528.503 404.253 1566.519 393.197 1610.845 393.197 L1681.232 393.197 C1703.968 393.197 1723.162 398.217 1736.739 407.714 1752.244 418.559 1760.106 434.585 1760.106 455.346 1760.106 476.161 1752.067 493.726 1736.856 506.143 1722.75 517.658 1702.996 524 1681.232 524 Z M1459.062 520.031 L1681.232 520.031 C1726.035 520.031 1756.138 494.036 1756.138 455.346 1756.138 402.835 1703.754 397.166 1681.232 397.166 L1610.845 397.166 C1537.991 397.166 1460.179 429.489 1459.062 520.031 Z" fill="#e5e5e5" fill-opacity="1" stroke="none"/>
   <path id="Path-copy-18-1" d="M1559.704 434.818 L1586.181 434.818 1586.181 441.192 1559.704 441.192 Z" fill="#fca311" fill-opacity="1" stroke="none"/>
   <path id="Path-copy-17-1" d="M1668.555 434.818 L1677.871 434.818 1677.871 441.192 1668.555 441.192 Z" fill="#fca311" fill-opacity="1" stroke="none"/>
   <path id="Path-copy-15-2" d="M1687.187 434.818 L1696.504 434.818 1696.504 441.192 1687.187 441.192 Z" fill="#fca311" fill-opacity="1" stroke="none"/>
   <path id="Path-copy-14-2" d="M1595.497 434.818 L1658.749 434.818 1658.749 441.192 1595.497 441.192 Z" fill="#fca311" fill-opacity="1" stroke="none"/>
   <path id="Path-copy-13-1" d="M1526.362 476.005 L1552.839 476.005 1552.839 482.379 1526.362 482.379 Z" fill="#fca311" fill-opacity="1" stroke="none"/>
   <path id="Path-copy-12-1" d="M1635.213 476.005 L1644.53 476.005 1644.53 482.379 1635.213 482.379 Z" fill="#fca311" fill-opacity="1" stroke="none"/>
   <path id="Path-copy-11-2" d="M1653.846 476.005 L1663.162 476.005 1663.162 482.379 1653.846 482.379 Z" fill="#fca311" fill-opacity="1" stroke="none"/>
   <path id="Path-copy-10-2" d="M1562.156 476.005 L1625.407 476.005 1625.407 482.379 1562.156 482.379 Z" fill="#fca311" fill-opacity="1" stroke="none"/>
   <path id="Path-copy-9-2" d="M1635.704 449.037 L1662.181 449.037 1662.181 455.411 1635.704 455.411 Z" fill="#fca311" fill-opacity="1" stroke="none"/>
   <path id="Path-copy-8-2" d="M1671.497 449.037 L1697.974 449.037 1697.974 455.411 1671.497 455.411 Z" fill="#fca311" fill-opacity="1" stroke="none"/>
   <path id="Path-copy-7-4" d="M1707.291 449.037 L1716.607 449.037 1716.607 455.411 1707.291 455.411 Z" fill="#fca311" fill-opacity="1" stroke="none"/>
   <path id="Path-copy-6-4" d="M1544.994 449.037 L1554.31 449.037 1554.31 455.411 1544.994 455.411 Z" fill="#fca311" fill-opacity="1" stroke="none"/>
   <path id="Path-copy-5-4" d="M1563.627 449.037 L1626.878 449.037 1626.878 455.411 1563.627 455.411 Z" fill="#fca311" fill-opacity="1" stroke="none"/>
   <path id="Path-copy-4-4" d="M1580.788 462.766 L1607.265 462.766 1607.265 469.141 1580.788 469.141 Z" fill="#fca311" fill-opacity="1" stroke="none"/>
   <path id="Path-copy-3-4" d="M1544.994 462.766 L1571.472 462.766 1571.472 469.141 1544.994 469.141 Z" fill="#fca311" fill-opacity="1" stroke="none"/>
   <path id="Path-copy-2-4" d="M1707.291 462.766 L1716.607 462.766 1716.607 469.141 1707.291 469.141 Z" fill="#fca311" fill-opacity="1" stroke="none"/>
   <path id="Path-copy-1-4" d="M1688.658 462.766 L1697.974 462.766 1697.974 469.141 1688.658 469.141 Z" fill="#fca311" fill-opacity="1" stroke="none"/>
   <path id="Path-copy-4" d="M1616.091 466.074 L1679.342 466.074 1679.342 472.448 1616.091 472.448 Z" fill="#fca311" fill-opacity="1" stroke="none"/>
  </g>
 </g>
 <g id="New-Group-9">
  <path id="Path-copy-13-2" d="M1423.223 631.494 L1422.012 625.44 C1422.012 625.44 1404.204 619.387 1402.212 631.494 Z" fill="#e6e6e6" fill-opacity="1" stroke="none"/>
  <path id="Path-copy-12-2" d="M1389.047 964.805 L1377.372 964.804 1371.818 919.774 1389.048 919.775 Z" fill="#ffb8b8" fill-opacity="1" stroke="none"/>
  <path id="Path-copy-11-3" d="M1392.024 976.122 L1354.381 976.12 1354.381 975.644 C1354.381 967.553 1360.94 960.994 1369.031 960.992 L1369.033 960.992 1392.025 960.993 Z" fill="#14213d" fill-opacity="1" stroke="none"/>
  <path id="Path-copy-10-3" d="M1429.182 964.805 L1440.857 964.804 1446.411 919.774 1429.181 919.775 Z" fill="#ffb8b8" fill-opacity="1" stroke="none"/>
  <path id="Path-copy-9-3" d="M1426.204 960.993 L1449.196 960.992 1449.197 960.992 C1457.288 960.993 1463.848 967.552 1463.848 975.644 L1463.848 976.12 1426.205 976.122 Z" fill="#14213d" fill-opacity="1" stroke="none"/>
  <path id="Path-copy-8-3" d="M1440.172 656.918 L1453.49 655.707 1461.964 695.66 1460.754 731.981 1447.437 780.408 1429.276 769.512 1438.962 719.874 Z" fill="#14213d" fill-opacity="1" stroke="none"/>
  <path id="Path-copy-7-5" d="M1448.601 776.17 L1445.62 801.595 1449.253 860.918 1449.253 949.322 1426.249 948.088 1421.407 856.075 1408.089 813.702 1398.404 862.129 1392.35 952.93 1368.742 951.038 1368.742 861.81 1368.136 796.752 1376.611 771.328 Z" fill="#14213d" fill-opacity="1" stroke="none"/>
  <path id="Path-copy-6-5" d="M1399.009 632.704 C1399.009 632.704 1407.484 620.598 1423.223 629.072 L1430.487 638.758 1453.49 655.707 1448.647 712.609 1454.7 784.04 1368.742 782.829 1383.27 711.399 1383.27 635.126 Z" fill="#14213d" fill-opacity="1" stroke="none"/>
  <path id="Path-copy-5-5" d="M1445.62 675.803 L1452.562 758.804 1443.804 713.82 Z" fill="#000000" fill-opacity="0.248" stroke="none"/>
  <path id="Path-copy-4-5" d="M1382.476 799.475 C1384.172 797.448 1384.884 794.775 1384.42 792.174 1383.955 789.572 1382.362 787.31 1380.069 785.996 L1382.658 765.756 1370.741 761.183 1367.488 789.818 C1365.492 793.905 1366.868 798.84 1370.692 801.304 1374.516 803.767 1379.579 802.982 1382.476 799.475 Z" fill="#ffb8b8" fill-opacity="1" stroke="none"/>
  <path id="Path-copy-3-5" d="M1386.902 779.197 L1367.531 779.197 1367.531 770.722 1386.902 770.722 Z" fill="#e6e6e6" fill-opacity="1" stroke="none"/>
  <path id="Path-copy-2-5" d="M1395.982 645.417 L1383.27 635.126 C1383.27 635.126 1374.19 634.52 1372.979 647.838 1371.769 661.155 1370.296 718.058 1370.296 718.058 L1365.715 774.96 1391.14 776.17 1395.982 714.583 Z" fill="#14213d" fill-opacity="1" stroke="none"/>
  <path id="Path-copy-1-5" d="M1424.144 573.076 C1435.925 579.516 1440.255 594.288 1433.815 606.07 1427.374 617.851 1412.602 622.181 1400.821 615.741 1389.039 609.3 1384.709 594.529 1391.15 582.747 1397.59 570.966 1412.362 566.636 1424.144 573.076 Z" fill="#ffb8b8" fill-opacity="1" stroke="none"/>
  <path id="Path-copy-5" d="M1410.666 615.854 C1422.989 618.813 1435.547 611.95 1439.713 599.982 1443.879 588.014 1438.296 574.836 1426.8 569.504 1422.527 567.597 1417.854 566.758 1413.184 567.06 1405.913 567.443 1398.846 570.13 1391.568 569.932 L1390.513 571.628 1386.537 570.663 1385.685 573.82 1384.638 573.784 C1382.762 577.27 1385.781 582.261 1389.739 582.218 1391.306 582.202 1392.788 581.549 1394.321 581.22 1395.853 580.892 1397.658 580.974 1398.715 582.131 1400.088 583.635 1399.49 585.983 1399.204 587.999 1398.918 590.016 1399.633 592.732 1401.669 592.798 1402.709 592.832 1403.698 592.086 1404.719 592.282 1405.91 592.51 1406.511 593.948 1406.338 595.147 1406.043 596.324 1405.562 597.446 1404.914 598.472 1401.963 604.363 1404.454 612.376 1410.226 615.555" fill="#14213d" fill-opacity="1" stroke="none"/>
 </g>
 <g id="New-Group-10">
  <path id="Path-copy-13-3" d="M1603.135 843.739 L1604.771 921.476 1655.096 948.071 1746.744 931.705 1748.995 850.899 1690.896 830.441 Z" fill="#ffffff" fill-opacity="1" stroke="none"/>
  <path id="Path-copy-12-3" d="M1654.965 948.91 L1603.978 921.966 1602.316 843.05 1690.974 829.617 1691.163 829.683 1749.814 850.335 1747.53 932.381 Z M1605.564 920.986 L1655.227 947.231 1745.959 931.029 1748.175 851.462 1690.818 831.266 1603.953 844.427 Z" fill="#cacaca" fill-opacity="1" stroke="none"/>
  <path id="Path-copy-11-4" d="M1653.973 864.816 L1653.776 864.738 1602.838 844.485 1603.431 842.992 1654.173 863.166 1748.885 850.103 1749.105 851.695 Z" fill="#cacaca" fill-opacity="1" stroke="none"/>
  <path id="Path-copy-10-4" d="M1653.27 864.001 L1654.877 863.981 1655.9 948.061 1654.292 948.08 Z" fill="#cacaca" fill-opacity="1" stroke="none"/>
  <path id="Path-copy-9-4" d="M1643.088 858.962 L1629.174 853.348 1717.569 839.263 1731.482 844.877 Z" fill="#cacaca" fill-opacity="1" stroke="none"/>
  <path id="Path-copy-8-4" d="M1602.817 867.766 L1603.452 866.289 1624.749 875.459 1624.113 876.935 Z" fill="#cacaca" fill-opacity="1" stroke="none"/>
  <path id="Path-copy-7-6" d="M1612.46 894.286 L1613.096 892.809 1634.392 901.979 1633.757 903.455 Z" fill="#fca311" fill-opacity="1" stroke="none"/>
  <path id="Path-copy-6-6" d="M1690.563 854.397 L1692.463 944.638 1750.882 975.51 1857.271 956.512 1859.883 862.709 1792.44 838.961 Z" fill="#fca311" fill-opacity="1" stroke="none"/>
  <path id="Path-copy-5-6" d="M1750.729 976.484 L1691.542 945.206 1689.613 853.598 1792.53 838.004 1792.75 838.081 1860.834 862.055 1858.182 957.296 Z M1693.384 944.069 L1751.034 974.535 1856.359 955.727 1858.931 863.363 1792.35 839.918 1691.513 855.197 Z" fill="#3f3d56" fill-opacity="1" stroke="none"/>
  <path id="Path-copy-4-6" d="M1749.578 878.865 L1749.35 878.774 1690.218 855.264 1690.907 853.53 1749.81 876.949 1859.755 861.785 1860.01 863.633 Z" fill="#3f3d56" fill-opacity="1" stroke="none"/>
  <path id="Path-copy-3-6" d="M1748.761 877.918 L1750.627 877.896 1751.814 975.498 1749.949 975.521 Z" fill="#3f3d56" fill-opacity="1" stroke="none"/>
  <path id="Path-copy-2-6" d="M1737.888 872.112 L1720.79 865.553 1823.402 849.202 1840.501 855.761 Z" fill="#3f3d56" fill-opacity="1" stroke="none"/>
  <path id="Path-copy-1-6" d="M1690.194 882.289 L1690.932 880.575 1715.653 891.219 1714.916 892.933 Z" fill="#3f3d56" fill-opacity="1" stroke="none"/>
  <path id="Path-copy-6" d="M1701.389 913.074 L1702.126 911.36 1726.848 922.004 1726.11 923.718 Z" fill="#ffffff" fill-opacity="1" stroke="none"/>
 </g>
 <g id="New-Group-11">
  <path id="Path-copy-22-2" d="M412.737 802.921 C410.317 802.518 407.836 803.103 405.849 804.543 403.862 805.984 402.536 808.16 402.166 810.586 L398.58 834.125 410.783 837.361 419.725 815.43 C420.777 812.849 420.599 809.929 419.239 807.495 417.88 805.062 415.487 803.378 412.737 802.921 Z" fill="#a0616a" fill-opacity="1" stroke="none"/>
  <path id="Path-copy-21-3" d="M412.509 834.081 C419.282 860.995 416.367 885.612 391.148 904.941 360.899 896.602 340.781 876.485 328.506 847.247 326.964 843.573 326.991 839.429 328.581 835.775 330.17 832.122 333.184 829.278 336.923 827.902 342.616 825.809 349.009 827.457 352.981 832.041 L382.66 866.296 396.583 831.755 Z" fill="#fca311" fill-opacity="1" stroke="none"/>
  <path id="Path-copy-20-3" d="M567.491 975.286 C539.872 973.819 522.714 964.336 518.559 944.889 L523.007 936.734 573.937 959.935 C576.567 961.133 578.213 963.801 578.103 966.689 577.993 969.576 576.15 972.111 573.436 973.106 Z" fill="#e6e6e6" fill-opacity="1" stroke="none"/>
  <path id="Path-copy-19-3" d="M546.15 975.481 C531.799 975.046 517.999 975.181 504.922 976.066 500.148 976.393 496 972.817 495.619 968.048 L494.834 958.234 483.713 940.441 493.352 930.802 C509.549 946.934 527.312 960.485 548.41 968.539 549.802 969.493 550.4 971.251 549.877 972.856 549.355 974.461 547.837 975.53 546.15 975.481 Z" fill="#e6e6e6" fill-opacity="1" stroke="none"/>
  <path id="Path-copy-18-2" d="M468.144 905.595 C449.819 938.384 431.797 960.488 408.091 972.321 378.925 981.947 357.609 969.193 340.995 943.035 L389.185 911.155 396.229 918.199 460.061 869.624 C463.307 866.551 468.421 866.665 471.526 869.879 L525.973 936.734 519.3 947.855 Z" fill="#2f2e41" fill-opacity="1" stroke="none"/>
  <path id="Path-copy-17-2" d="M484.455 944.148 L459.247 905.595 465.178 894.474 498.541 929.32 Z" fill="#2f2e41" fill-opacity="1" stroke="none"/>
  <path id="Path-copy-16-2" d="M364.348 795.868 C364.348 809.79 353.063 821.076 339.141 821.076 325.219 821.076 313.934 809.79 313.934 795.868 313.934 781.947 325.219 770.661 339.141 770.661 353.063 770.661 364.348 781.947 364.348 795.868 Z" fill="#a0616a" fill-opacity="1" stroke="none"/>
  <path id="Path-copy-15-3" d="M345.814 842.576 L317.641 832.938 C321.81 826.313 323.637 818.482 322.83 810.696 L345.814 810.696 C344.507 822.008 344.311 832.738 345.814 842.576 Z" fill="#a0616a" fill-opacity="1" stroke="none"/>
  <path id="Path-copy-14-3" d="M405.867 910.043 C401.643 911.777 401.334 917.4 397.341 919.311 378.035 928.548 357.61 936.043 343.589 949.337 310.825 927.088 280.456 857.984 319.865 827.748 333.316 835.62 345.332 841.253 345.072 827.748 Z" fill="#fca311" fill-opacity="1" stroke="none"/>
  <path id="Path-copy-13-4" d="M348 899 L335.907 853.028 C335.066 849.999 333.702 851.534 331.745 853.638 327.579 849.782 321.553 848.695 316.302 850.852 311.051 853.009 307.53 858.017 307.277 863.689 305.834 895.366 315.246 919.501 339 940 370.07 933.348 388.474 921.239 404 903 L393 893 C393.99 889.837 348 899 348 899 Z" fill="#000000" fill-opacity="0.198" stroke="none"/>
  <path id="Path-copy-12-4" d="M342.533 762.708 C350.848 764.608 360.312 767.3 360.842 769.802 369.396 771.957 375.852 777.12 377.17 784.99 377.393 786.367 376.994 787.773 376.081 788.828 375.169 789.883 373.836 790.479 372.441 790.457 367.789 790.397 360.806 789.951 356.195 788.025 342.801 796.656 340.552 819.104 346.402 834.383 L337.197 833.539 327.674 805.661 325.241 832.444 304.236 829.666 306.941 795.514 C307.773 787.465 310.512 779.73 314.932 772.951 315.391 772.27 315.893 771.62 316.435 771.003 322.946 763.648 332.97 760.462 342.533 762.708 Z" fill="#2f2e41" fill-opacity="1" stroke="none"/>
  <g id="New-Group-12">
   <path id="Path-copy-39" d="M397.81 885.774 L436.262 875.486 439.648 874.683 442.062 874.11 444.875 873.445 444.897 873.44 C445.306 873.346 445.735 873.418 446.092 873.639 L460.369 890.757 C460.499 890.836 460.612 890.938 460.705 891.058 460.744 891.089 460.778 891.125 460.807 891.165 461.128 891.603 461.21 892.171 461.025 892.682 460.841 893.192 460.415 893.578 459.888 893.709 L402.526 906.91 C401.92 907.047 401.288 906.824 400.902 906.337 L400.32 905.582 397.146 890.297 396.92 888.312 C396.776 888.128 396.674 887.915 396.622 887.687 396.43 886.832 396.959 885.981 397.81 885.774 Z" fill="#e6e6e6" fill-opacity="1" stroke="none"/>
   <path id="Path-copy-38" d="M400.32 905.581 L400.905 906.338 C401.29 906.824 401.92 907.047 402.525 906.911 L459.889 893.71 C460.416 893.579 460.842 893.194 461.026 892.683 461.21 892.173 461.127 891.604 460.806 891.168 460.778 891.127 460.744 891.091 460.706 891.06 Z" fill="#000000" fill-opacity="1" stroke="none"/>
   <path id="Path-copy-37" d="M444.589 877.725 L443.551 821.096 C443.507 820.755 443.641 820.414 443.921 820.149 L451.271 808.303 452.035 807.584 C452.319 807.322 452.724 807.156 453.165 807.122 L454.764 807.006 C455.682 806.936 456.499 807.456 456.59 808.167 L458.03 868.085 458.032 868.089 458.746 873.859 459.591 880.709 459.594 880.718 460.914 891.377 C460.964 891.746 460.803 892.113 460.473 892.382 460.151 892.654 459.693 892.806 459.217 892.798 L458.176 892.782 C457.777 892.774 457.394 892.657 457.095 892.452 L456.513 892.047 456.243 891.856 445.141 878.567 C444.826 878.35 444.628 878.049 444.589 877.725 Z" fill="#e6e6e6" fill-opacity="1" stroke="none"/>
   <path id="Path-copy-36" d="M451.274 809.289 L456.242 891.869 456.513 892.055 457.094 892.454 C457.392 892.657 457.775 892.773 458.175 892.781 L459.217 892.797 C459.694 892.803 460.152 892.653 460.476 892.385 460.8 892.117 460.959 891.756 460.915 891.393 L456.588 809.157 C456.499 808.454 455.684 807.939 454.765 808.006 L453.162 808.123 C452.722 808.154 452.317 808.319 452.038 808.581 Z" fill="#000000" fill-opacity="0.174" stroke="none"/>
   <path id="Path-copy-35" d="M451 814 L446 822 445.801 870.95 453 888 Z" fill="#fca311" fill-opacity="1" stroke="none"/>
   <path id="Path-copy-34" d="M401.781 885.475 C401.032 885.746 400.645 886.573 400.915 887.322 L404.73 899.427 407.443 898.446 403.628 886.341 C403.357 885.592 402.53 885.204 401.781 885.475 Z" fill="#2f2e41" fill-opacity="1" stroke="none"/>
   <path id="Path-copy-33" d="M407.791 883.756 C407.025 883.974 406.581 884.772 406.799 885.538 L407.431 887.758 410.206 886.968 409.574 884.748 C409.355 883.982 408.557 883.538 407.791 883.756 Z" fill="#2f2e41" fill-opacity="1" stroke="none"/>
   <path id="Path-copy-32" d="M413.341 882.176 C412.575 882.394 412.13 883.192 412.348 883.958 L412.98 886.178 415.755 885.388 415.123 883.168 C414.905 882.402 414.107 881.958 413.341 882.176 Z" fill="#2f2e41" fill-opacity="1" stroke="none"/>
   <path id="Path-copy-31" d="M418.89 880.596 C418.124 880.814 417.68 881.612 417.898 882.378 L418.53 884.598 421.305 883.808 420.673 881.588 C420.454 880.822 419.657 880.378 418.89 880.596 Z" fill="#2f2e41" fill-opacity="1" stroke="none"/>
   <path id="Path-copy-30" d="M424.44 879.015 C423.674 879.234 423.23 880.031 423.448 880.798 L424.08 883.018 426.854 882.228 426.222 880.008 C426.004 879.242 425.206 878.797 424.44 879.015 Z" fill="#2f2e41" fill-opacity="1" stroke="none"/>
   <path id="Path-copy-29" d="M429.989 877.435 C429.223 877.654 428.779 878.451 428.997 879.218 L429.629 881.437 432.404 880.647 431.772 878.427 C431.553 877.661 430.756 877.217 429.989 877.435 Z" fill="#2f2e41" fill-opacity="1" stroke="none"/>
   <path id="Path-copy-28" d="M435.539 875.855 C434.773 876.073 434.329 876.871 434.547 877.637 L435.179 879.857 437.954 879.067 437.322 876.847 C437.103 876.081 436.305 875.637 435.539 875.855 Z" fill="#2f2e41" fill-opacity="1" stroke="none"/>
   <path id="Path-copy-27" d="M441.089 874.275 C440.323 874.493 439.878 875.291 440.096 876.057 L440.728 878.277 443.503 877.487 442.871 875.267 C442.653 874.501 441.855 874.057 441.089 874.275 Z" fill="#2f2e41" fill-opacity="1" stroke="none"/>
   <path id="Path-copy-26" d="M409.956 888.817 C409.19 889.035 408.746 889.833 408.963 890.599 L409.596 892.819 412.37 892.029 411.738 889.809 C411.52 889.043 410.722 888.599 409.956 888.817 Z" fill="#2f2e41" fill-opacity="1" stroke="none"/>
   <path id="Path-copy-25" d="M415.505 887.237 C414.739 887.455 414.295 888.253 414.513 889.019 L415.145 891.239 417.92 890.449 417.288 888.229 C417.069 887.463 416.272 887.019 415.505 887.237 Z" fill="#2f2e41" fill-opacity="1" stroke="none"/>
   <path id="Path-copy-24-1" d="M421.055 885.656 C420.289 885.875 419.845 886.673 420.063 887.439 L420.695 889.659 423.47 888.869 422.837 886.649 C422.619 885.883 421.821 885.438 421.055 885.656 Z" fill="#2f2e41" fill-opacity="1" stroke="none"/>
   <path id="Path-copy-23" d="M426.605 884.076 C425.839 884.295 425.394 885.092 425.612 885.859 L426.244 888.078 429.019 887.288 428.387 885.069 C428.169 884.302 427.371 883.858 426.605 884.076 Z" fill="#2f2e41" fill-opacity="1" stroke="none"/>
   <path id="Path-copy-11-5" d="M432.154 882.496 C431.388 882.714 430.944 883.512 431.162 884.278 L431.794 886.498 434.569 885.708 433.937 883.488 C433.718 882.722 432.92 882.278 432.154 882.496 Z" fill="#2f2e41" fill-opacity="1" stroke="none"/>
   <path id="Path-copy-10-5" d="M437.704 880.916 C436.938 881.134 436.493 881.932 436.711 882.698 L437.343 884.918 440.118 884.128 439.486 881.908 C439.268 881.142 438.47 880.698 437.704 880.916 Z" fill="#2f2e41" fill-opacity="1" stroke="none"/>
   <path id="Path-copy-9-5" d="M443.253 879.336 C442.487 879.554 442.043 880.352 442.261 881.118 L442.893 883.338 445.668 882.548 445.036 880.328 C444.817 879.562 444.02 879.118 443.253 879.336 Z" fill="#2f2e41" fill-opacity="1" stroke="none"/>
   <path id="Path-copy-8-5" d="M412.12 893.878 C411.354 894.096 410.91 894.894 411.128 895.66 L411.76 897.88 414.535 897.09 413.903 894.87 C413.684 894.104 412.887 893.66 412.12 893.878 Z" fill="#2f2e41" fill-opacity="1" stroke="none"/>
   <path id="Path-copy-7-7" d="M417.67 892.297 C416.904 892.516 416.46 893.314 416.678 894.08 L417.31 896.3 420.085 895.51 419.452 893.29 C419.234 892.524 418.436 892.08 417.67 892.297 Z" fill="#2f2e41" fill-opacity="1" stroke="none"/>
   <path id="Path-copy-6-7" d="M423.22 890.717 C422.454 890.936 422.009 891.733 422.227 892.5 L422.859 894.72 425.634 893.929 425.002 891.71 C424.784 890.943 423.986 890.499 423.22 890.717 Z" fill="#2f2e41" fill-opacity="1" stroke="none"/>
   <path id="Path-copy-5-7" d="M428.769 889.137 C428.003 889.355 427.559 890.153 427.777 890.919 L428.409 893.139 431.184 892.349 430.552 890.129 C430.333 889.363 429.535 888.919 428.769 889.137 Z" fill="#2f2e41" fill-opacity="1" stroke="none"/>
   <path id="Path-copy-4-7" d="M434.319 887.557 C433.553 887.775 433.109 888.573 433.326 889.339 L433.959 891.559 436.733 890.769 436.101 888.549 C435.883 887.783 435.085 887.339 434.319 887.557 Z" fill="#2f2e41" fill-opacity="1" stroke="none"/>
   <path id="Path-copy-3-7" d="M439.868 885.977 C439.102 886.195 438.658 886.993 438.876 887.759 L439.508 889.979 442.283 889.189 441.651 886.969 C441.432 886.203 440.635 885.759 439.868 885.977 Z" fill="#2f2e41" fill-opacity="1" stroke="none"/>
   <path id="Path-copy-2-7" d="M445.418 884.396 C444.652 884.615 444.208 885.413 444.426 886.179 L445.058 888.399 447.832 887.609 447.2 885.389 C446.982 884.623 446.184 884.179 445.418 884.396 Z" fill="#2f2e41" fill-opacity="1" stroke="none"/>
  </g>
  <path id="Path-copy-1-7" d="M413.363 886.534 C411.88 884.579 409.676 883.3 407.243 882.982 404.809 882.665 402.35 883.335 400.415 884.845 L381.641 899.489 388.287 910.223 409.85 900.426 C412.388 899.272 414.263 897.027 414.947 894.325 415.631 891.622 415.048 888.756 413.363 886.534 Z" fill="#a0616a" fill-opacity="1" stroke="none"/>
  <path id="Path-copy-7" d="M403 904 C384.784 919.399 370.211 931.564 339.141 938.216 315.387 917.717 305.834 890.917 307.277 859.24 307.458 855.26 309.259 851.528 312.261 848.908 315.263 846.289 319.206 845.011 323.174 845.371 329.214 845.92 334.284 850.149 335.907 855.993 L348.038 899.664 391 893 Z" fill="#fca311" fill-opacity="1" stroke="none"/>
 </g>
 <g id="New-Group-copy">
  <path id="Path-24" d="M848.299 211.712 C848.299 211.712 877.921 212.517 882.813 214.297 887.705 216.077 889.893 228.805 889.893 228.805 L866.894 236.034 849.692 235.059 836.745 235.974 843.974 217.042 Z" fill="#2f2e41" fill-opacity="1" stroke="none"/>
  <path id="Path-25" d="M849.577 201.992 C849.577 201.992 851.526 209.519 847.201 214.849 842.875 220.179 865.795 239.171 865.795 239.171 L877.886 237.092 C877.886 237.092 875.221 213.964 878.801 208.107 882.381 202.25 849.577 201.992 849.577 201.992 Z" fill="#9f616a" fill-opacity="1" stroke="none"/>
  <path id="Path-26" d="M849.577 201.992 C849.577 201.992 851.526 209.519 847.201 214.849 842.875 220.179 865.795 239.171 865.795 239.171 L877.886 237.092 C877.886 237.092 875.221 213.964 878.801 208.107 882.381 202.25 849.577 201.992 849.577 201.992 Z" fill="#000000" fill-opacity="0.104" stroke="none"/>
  <path id="Path-27" d="M929.991 422.071 L903.312 457.45 921.519 468.079 946.577 427.083 Z" fill="#9f616a" fill-opacity="1" stroke="none"/>
  <path id="Path-28" d="M911.277 458.047 C911.277 458.047 901.453 446.632 901.89 449.177 902.328 451.723 894.9 473.31 901.811 475.398 908.722 477.486 967.985 483.025 968.8 476.333 969.616 469.641 951.121 464.957 951.121 464.957 951.121 464.957 940.133 454.397 937.697 455.471 935.261 456.545 911.277 458.047 911.277 458.047 Z" fill="#2f2e41" fill-opacity="1" stroke="none"/>
  <path id="Path-29" d="M924.005 455.859 L945.314 492.163 961.402 482.846 939.915 453.125 Z" fill="#9f616a" fill-opacity="1" stroke="none"/>
  <path id="Path-30" d="M957.643 369.49 L951.319 378.439 C951.319 378.439 921.171 420.311 924.373 423.692 927.574 427.073 940.909 439.85 947.69 437.374 954.472 434.898 978.565 392.101 978.565 392.101 L972.28 366.974 Z" fill="#2f2e41" fill-opacity="1" stroke="none"/>
  <path id="Path-31" d="M827.771 361.018 C827.771 361.018 834.523 373.617 851.636 377.882 868.749 382.148 886.627 390.869 887.263 390.759 887.9 390.65 889.7 389.685 890.137 392.231 890.575 394.776 895.268 399.211 895.268 399.211 895.268 399.211 914.171 463.446 921.39 463.516 928.609 463.585 943.444 458.414 943.753 456.396 944.061 454.377 921.648 388.78 921.429 387.508 L918.804 372.234 C918.804 372.234 948.446 376.967 951.21 377.803 953.974 378.638 978.565 392.101 978.565 392.101 978.565 392.101 1003.632 374.034 980.185 355.788 956.738 337.541 916.438 324.158 916.438 324.158 L901.98 320.091 889.379 319.339 887.524 312.224 857.681 313.946 826.538 327.161 Z" fill="#2f2e41" fill-opacity="1" stroke="none"/>
  <path id="Path-32" d="M890.403 193.729 C890.403 206.567 879.995 216.975 867.157 216.975 854.319 216.975 843.911 206.567 843.911 193.729 843.911 180.891 854.319 170.483 867.157 170.483 879.995 170.483 890.403 180.891 890.403 193.729 Z" fill="#9f616a" fill-opacity="1" stroke="none"/>
  <path id="Path-33" d="M846.127 212.413 L848.923 211.932 C848.923 211.932 853.972 231.375 869.593 234.587 869.593 234.587 877.301 225.353 876.972 223.795 876.643 222.237 883.077 213.924 886.497 218.578 889.918 223.231 885.662 305.205 888.536 306.677 891.41 308.149 897.575 309.71 892.613 315.149 887.651 320.588 867.943 327.906 863.578 325.381 859.213 322.855 850.293 301.457 846.435 294.258 842.577 287.059 836.402 262.568 836.402 262.568 836.402 262.568 828.517 235.75 833.369 229.675 838.222 223.599 846.127 212.413 846.127 212.413 Z" fill="#d0cde1" fill-opacity="1" stroke="none"/>
  <path id="Path-34" d="M868.374 313.331 C867.855 319.042 866.965 324.712 865.711 330.307 864.571 334.86 863.244 337.608 861.729 337.491 857.864 337.202 856.107 342.871 855.201 349.407 854.233 356.341 854.233 364.251 853.702 367.046 852.999 370.74 848.502 373.559 839.514 372.731 834.161 372.122 828.908 370.834 823.881 368.897 811.747 364.485 812.106 328.706 814.136 302.157 815.378 285.884 817.244 273.071 817.244 273.071 817.244 273.071 813.558 262.076 812.379 254.541 812.144 253.166 812.027 251.774 812.028 250.379 812.207 243.797 824.225 226.009 831.487 214.928 838.756 203.848 848.673 211.977 848.673 211.977 L845.222 222.393 C845.222 222.393 850.571 230.647 850.61 238.502 850.649 246.358 863.416 252.027 867.999 255.829 870.881 258.219 870.81 290.117 868.374 313.331 Z" fill="#2f2e41" fill-opacity="1" stroke="none"/>
  <path id="Path-35" d="M878.468 215.699 C878.468 215.699 879.306 216.689 883.141 216.206 887.742 215.627 894.067 217.218 895.536 221.61 898.231 229.665 905.828 262.428 905.828 262.428 905.828 262.428 908.99 299.886 910.412 308.159 911.834 316.432 911.128 323.76 912.53 328.105 913.932 332.451 898.688 320.001 893.07 321.622 887.452 323.243 883.843 302.242 884.549 294.914 885.255 287.586 885.851 279.621 883.902 272.094 881.953 264.566 885.409 244.645 885.279 240.081 885.15 235.516 872.891 224.013 878.468 215.699 Z" fill="#2f2e41" fill-opacity="1" stroke="none"/>
  <g id="New-Group-13">
   <path id="Path-copy-5-8" d="M996.417 263.507 L1000.232 286.155 C1000.274 286.408 1000.246 286.667 1000.151 286.905 L970.227 361.676 C969.982 362.286 969.345 362.643 968.698 362.532 968.05 362.422 967.567 361.874 967.539 361.217 L966.272 331.17 C966.263 330.97 966.298 330.771 966.373 330.586 L993.751 263.214 C993.986 262.636 994.575 262.285 995.195 262.353 995.815 262.421 996.314 262.892 996.417 263.507 Z" fill="#3f3d56" fill-opacity="1" stroke="none"/>
   <path id="Path-copy-4-8" d="M994.299 265.246 L997.923 284.703 971.368 352.934 967.92 330.985 Z" fill="#fca311" fill-opacity="1" stroke="none"/>
   <path id="Path-copy-3-8" d="M878.114 361.328 C878.767 363.879 964.55 366.64 965.44 365.868 966.238 364.88 966.929 363.81 967.503 362.676 968.402 361.07 969.234 359.46 969.234 359.46 L967.824 332.331 883.322 323.3 C883.322 323.3 879.583 345.94 878.41 356.341 878.145 357.989 878.045 359.66 878.114 361.328 Z" fill="#3f3d56" fill-opacity="1" stroke="none"/>
   <path id="Path-copy-2-8" d="M956.768 335.201 L956.776 358.574 919.401 355.917 921.055 332.661 Z" fill="#000000" fill-opacity="0.1" stroke="none"/>
   <path id="Path-copy-1-8" d="M908.065 339.25 L908.291 339.222 906.526 349.158 885.762 347.682 886.471 337.715 Z" fill="#000000" fill-opacity="1" stroke="none"/>
   <path id="Path-copy-8" d="M878.114 361.328 C878.767 363.879 964.55 366.64 965.44 365.868 966.238 364.88 966.929 363.81 967.503 362.676 L878.41 356.341 C878.145 357.989 878.045 359.66 878.114 361.328 Z" fill="#000000" fill-opacity="0.099" stroke="none"/>
  </g>
  <path id="Path-copy-9" d="M897 342.368 L910.707 348.562 C910.82 348.828 910.948 349.089 911.089 349.343 912.334 351.54 914.513 353.138 917.086 353.738 919.67 354.348 922.408 353.882 924.599 352.46 928.673 349.835 929.857 344.681 927.297 340.714 924.738 336.746 919.325 335.342 914.959 337.514 914.592 337.698 914.24 337.907 913.905 338.137 L899.087 336 Z" fill="#9f616a" fill-opacity="1" stroke="none"/>
  <path id="Path-36" d="M949.202 484.287 C949.202 484.287 943.186 491.218 941.694 490.164 940.203 489.11 936.772 503.458 939.865 506.203 942.957 508.947 954.87 513.452 954.999 518.016 955.128 522.58 987.077 521.675 988.22 516.892 989.364 512.109 984.213 501.201 980.593 499.203 976.974 497.204 963.591 478.809 963.591 478.809 963.591 478.809 953.109 480.34 949.202 484.287 Z" fill="#2f2e41" fill-opacity="1" stroke="none"/>
  <path id="Path-37" d="M890.995 355.365 C885.287 351.336 869.35 350.336 855.201 349.407 848.993 349.009 843.129 348.618 838.624 347.986 834.282 347.384 830.378 343.418 826.911 337.507 821.656 328.55 817.408 315.12 814.136 302.157 815.378 285.884 817.244 273.071 817.244 273.071 817.244 273.071 813.558 262.076 812.379 254.541 813.21 253.384 814.281 252.42 815.518 251.714 830.526 245.272 844.855 308.67 846.674 318.618 846.706 318.782 846.729 318.938 846.752 319.071 847.635 324.193 857.169 328.574 865.711 330.307 870.974 331.377 875.87 331.447 878.127 330.057 884.054 326.419 902.279 340.981 903.661 341.395 905.043 341.817 899.194 361.167 890.995 355.365 Z" fill="#000000" fill-opacity="0.099" stroke="none"/>
  <path id="Path-38" d="M815.521 247.812 C815.521 247.812 804.613 252.963 809.406 277.036 814.198 301.109 823.854 342.036 838.62 344.085 853.386 346.133 885.797 343.203 894 349 902.203 354.797 909.274 336.642 908 334 907.373 332.699 883.673 325.467 878.125 326.156 871.224 327.014 848.175 323.442 846.753 315.169 845.332 306.896 830.774 241.259 815.521 247.812 Z" fill="#2f2e41" fill-opacity="1" stroke="none"/>
  <path id="Path-39" d="M853.932 193.405 C854.823 193.168 854.954 191.985 854.983 191.063 855.143 186.128 858.115 181.064 862.839 179.627 864.652 179.13 866.55 179.025 868.407 179.32 871.057 179.674 873.615 180.527 875.946 181.836 877.177 182.528 878.383 183.361 879.779 183.572 880.701 183.712 884.692 184.872 885.61 185.035 887.628 185.394 889.503 187.2 891.439 186.528 893.292 185.885 893.702 183.487 893.747 181.526 893.849 177.06 890.458 170.879 887.472 167.556 885.206 165.035 881.794 163.871 878.458 163.266 874.562 162.64 870.613 162.4 866.67 162.549 861.331 162.644 855.845 163.056 851.032 165.366 846.219 167.676 842.175 172.273 841.945 177.607 841.897 178.718 842.011 179.833 841.918 180.942 841.69 183.645 840.254 186.087 839.581 188.715 838.607 192.615 839.329 196.744 841.567 200.082 843.354 202.711 846.161 205.089 846.058 208.266 L849.932 204.253 C851.124 203.342 851.518 201.723 850.878 200.367 L849.507 195.019 C849.154 194.064 849.113 193.022 849.388 192.042 850.858 188.411 852.446 193.802 853.932 193.405 Z" fill="#2f2e41" fill-opacity="1" stroke="none"/>
 </g>
 <g id="New-Group-14">
  <path id="Path-40" d="M911.064 619.812 L928.241 619.812 928.241 636.989 911.064 636.989 Z" fill="#e6e6e6" fill-opacity="1" stroke="none"/>
  <path id="Path-41" d="M881.481 619.812 L898.658 619.812 898.658 636.989 881.481 636.989 Z" fill="#fca311" fill-opacity="1" stroke="none"/>
  <path id="Path-42" d="M843.095 672.249 L900.352 672.249 900.352 729.507 843.095 729.507 Z" fill="#e6e6e6" fill-opacity="1" stroke="none"/>
  <path id="Path-copy-13-5" d="M854.336 642.682 C854.336 655.48 843.962 665.854 831.165 665.854 818.367 665.854 807.993 655.48 807.993 642.682 807.993 629.885 818.367 619.511 831.165 619.511 843.962 619.511 854.336 629.885 854.336 642.682 Z" fill="#a0616a" fill-opacity="1" stroke="none"/>
  <path id="Path-copy-12-5" d="M888.051 626.732 Q888.394 627.005 888.715 627.31 C890.868 629.338 892.054 632.189 891.974 635.145 891.894 638.102 890.557 640.884 888.298 642.794 888.038 643.012 887.766 643.217 887.484 643.407 L889.053 696.352 C889.144 699.911 886.89 703.109 883.508 704.219 L883.412 704.24 840.423 708.818 C837.243 709.156 834.125 707.762 832.257 705.165 830.389 702.569 830.059 699.169 831.392 696.262 832.724 693.354 835.515 691.385 838.701 691.105 L869.345 688.406 874.645 642.555 C874.298 642.248 873.974 641.917 873.674 641.565 870.231 637.491 870.437 631.471 874.149 627.641 877.861 623.811 883.872 623.418 888.051 626.732 Z" fill="#a0616a" fill-opacity="1" stroke="none"/>
  <path id="Path-copy-11-6" d="M869.328 965.174 L880.895 965.174 886.397 920.561 869.326 920.561 Z" fill="#a0616a" fill-opacity="1" stroke="none"/>
  <path id="Path-copy-10-6" d="M866.378 961.398 L889.156 961.397 889.157 961.397 C893.007 961.397 896.699 962.926 899.422 965.648 902.144 968.371 903.673 972.063 903.673 975.913 L903.673 976.384 866.379 976.386 Z" fill="#14213d" fill-opacity="1" stroke="none"/>
  <path id="Path-copy-9-6" d="M754.366 949.182 L764.304 955.099 791.857 919.582 777.189 910.849 Z" fill="#a0616a" fill-opacity="1" stroke="none"/>
  <path id="Path-copy-8-6" d="M753.763 944.428 L773.335 956.081 773.335 956.082 C776.643 958.051 779.033 961.254 779.98 964.986 780.926 968.718 780.351 972.673 778.381 975.981 L778.14 976.386 746.095 957.307 Z" fill="#14213d" fill-opacity="1" stroke="none"/>
  <path id="Path-copy-7-8" d="M883.624 949.417 L870.672 949.417 C868.5 949.42 866.677 947.78 866.451 945.62 L853.394 822.883 C853.326 822.247 852.841 821.736 852.21 821.635 851.58 821.534 850.959 821.867 850.696 822.449 L827.141 874.608 785.437 942.611 C784.322 944.413 782.052 945.122 780.108 944.277 L763.448 936.947 C762.334 936.456 761.484 935.511 761.114 934.351 760.744 933.191 760.889 931.928 761.513 930.883 L799.851 866.69 811.608 812.605 C807.91 789.15 823.763 754.279 823.924 753.929 L824.003 753.759 867.67 736.691 867.889 736.959 C885.11 793.473 895.604 854.291 887.856 945.527 887.658 947.72 885.826 949.404 883.624 949.417 Z" fill="#14213d" fill-opacity="1" stroke="none"/>
  <path id="Path-copy-6-8" d="M822.243 759.474 L822.04 759.046 C821.943 758.842 812.233 738.362 804.748 716.475 801.839 707.917 802.651 698.532 806.986 690.601 811.378 682.588 818.927 676.783 827.799 674.597 843.544 670.823 859.678 679.148 865.727 694.167 871.664 709.014 869.772 724.861 867.991 737.324 L867.956 737.574 867.729 737.682 Z" fill="#3f3d56" fill-opacity="1" stroke="none"/>
  <path id="Path-copy-5-9" d="M859.26 629.593 L822.466 629.593 822.466 613.555 C830.542 610.346 838.444 607.618 843.221 613.555 852.079 613.555 859.26 620.735 859.26 629.593 Z" fill="#14213d" fill-opacity="1" stroke="none"/>
  <path id="Path-copy-4-9" d="M820.429 610.724 C798.433 610.724 792.276 638.296 792.276 653.85 792.276 662.524 796.199 665.627 802.363 666.677 L804.541 655.066 809.64 667.176 C811.371 667.185 813.19 667.152 815.076 667.117 L816.805 663.557 820.66 667.053 C836.101 667.076 848.581 669.327 848.581 653.85 848.581 638.296 843.182 610.724 820.429 610.724 Z" fill="#14213d" fill-opacity="1" stroke="none"/>
  <path id="Path-copy-3-9" d="M926.61 648.473 L883.61 648.473 C878.366 648.467 874.116 644.217 874.11 638.973 L874.11 595.973 C874.116 590.728 878.366 586.479 883.61 586.473 L926.61 586.473 C931.854 586.479 936.104 590.729 936.11 595.973 L936.11 638.973 C936.104 644.217 931.854 648.467 926.61 648.473 Z" fill="#ffffff" fill-opacity="1" stroke="none"/>
  <path id="Path-copy-2-9" d="M926.61 648.473 L883.61 648.473 C878.366 648.467 874.116 644.217 874.11 638.973 L874.11 595.973 C874.116 590.728 878.366 586.479 883.61 586.473 L926.61 586.473 C931.854 586.479 936.104 590.729 936.11 595.973 L936.11 638.973 C936.104 644.217 931.854 648.467 926.61 648.473 Z M883.61 588.473 C879.47 588.477 876.115 591.833 876.11 595.973 L876.11 638.973 C876.115 643.113 879.47 646.468 883.61 646.473 L926.61 646.473 C930.75 646.468 934.106 643.113 934.11 638.973 L934.11 595.973 C934.106 591.833 930.751 588.477 926.61 588.473 Z" fill="#3f3d56" fill-opacity="1" stroke="none"/>
  <path id="Path-copy-1-9" d="M919.11 630.973 L891.11 630.973 C889.454 630.971 888.112 629.629 888.11 627.973 L888.11 606.973 C888.112 605.317 889.454 603.975 891.11 603.973 L898.993 603.973 C900.035 603.969 901.004 604.51 901.548 605.4 L903.746 608.973 919.11 608.973 C920.766 608.975 922.108 610.317 922.11 611.973 L922.11 627.973 C922.109 629.629 920.767 630.971 919.11 630.973 Z" fill="#fca311" fill-opacity="1" stroke="none"/>
  <path id="Path-copy-10" d="M918.199 641.582 Q918.409 641.966 918.587 642.372 C919.784 645.077 919.771 648.164 918.55 650.858 917.329 653.552 915.017 655.598 912.194 656.481 911.87 656.581 911.54 656.664 911.206 656.73 L892.107 706.135 C890.81 709.451 887.492 711.523 883.944 711.234 L883.848 711.216 842.451 698.754 C839.388 697.832 837.056 695.337 836.343 692.219 835.629 689.101 836.643 685.84 839 683.677 841.356 681.515 844.692 680.783 847.737 681.761 L877.027 691.164 899.704 650.963 C899.503 650.545 899.333 650.115 899.193 649.673 897.601 644.583 900.127 639.115 905.034 637.025 909.941 634.936 915.633 636.906 918.2 641.582 Z" fill="#a0616a" fill-opacity="1" stroke="none"/>
 </g>
</svg>
