<?xml version="1.0" encoding="UTF-8"?>
<svg width="787px" height="541px" viewBox="0 0 787 541" xmlns="http://www.w3.org/2000/svg" xmlns:xlink="http://www.w3.org/1999/xlink" version="1.1">
 <!-- Generated by Pixelmator Pro 2.0.5 -->
 <path id="Path" d="M469.148 238.839 C469.148 332.176 393.484 407.839 300.148 407.839 206.812 407.839 131.148 332.176 131.148 238.839 131.148 145.503 206.812 69.839 300.148 69.839 393.484 69.839 469.148 145.503 469.148 238.839 Z" fill="#f2f2f2" fill-opacity="1" stroke="none"/>
 <path id="Path-1" d="M528.148 370.839 C528.148 388.513 513.821 402.839 496.148 402.839 478.475 402.839 464.148 388.513 464.148 370.839 464.148 353.166 478.475 338.839 496.148 338.839 513.821 338.839 528.148 353.166 528.148 370.839 Z" fill="#f2f2f2" fill-opacity="1" stroke="none"/>
 <path id="Path-2" d="M435.247 456.844 C354.473 456.848 284.195 396.592 273.812 314.406 L275.797 314.155 C286.051 395.326 355.473 454.839 435.249 454.844 442.027 454.844 448.798 454.416 455.522 453.564 543.508 442.449 606.047 361.825 594.931 273.839 L596.916 273.588 C608.169 362.668 544.853 444.296 455.773 455.549 448.965 456.41 442.11 456.843 435.247 456.844 Z" fill="#14213d" fill-opacity="1" stroke="none"/>
 <path id="Path-3" d="M439.585 490.292 L407.781 490.292 C406.404 490.295 405.102 489.668 404.246 488.589 403.401 487.539 403.083 486.159 403.384 484.844 406.401 471.525 406.223 457.68 402.863 444.443 402.393 442.568 403.18 440.602 404.815 439.569 415.817 432.754 427.798 432.966 441.443 440.221 442.7 440.883 443.576 442.095 443.811 443.496 446.07 457.709 446.149 472.184 444.045 486.421 443.736 488.645 441.83 490.298 439.585 490.292 Z" fill="#fca311" fill-opacity="1" stroke="none"/>
 <path id="Path-4" d="M294.585 320.292 L262.781 320.292 C261.404 320.295 260.102 319.668 259.246 318.589 258.401 317.539 258.083 316.159 258.383 314.844 261.413 301.479 261.222 287.585 257.828 274.308 257.389 272.519 258.082 270.643 259.578 269.569 275.931 257.808 288.81 258.149 297.857 270.586 298.265 271.152 298.536 271.806 298.649 272.495 301.066 287.027 301.2 301.847 299.045 316.42 298.735 318.645 296.83 320.298 294.585 320.292 Z" fill="#cccccc" fill-opacity="1" stroke="none"/>
 <path id="Path-5" d="M424.725 460.443 L413.784 460.443 C412.527 460.439 411.511 459.419 411.511 458.162 411.511 456.905 412.527 455.885 413.784 455.881 L424.725 455.881 C425.983 455.883 427.002 456.904 427.002 458.162 427.002 459.421 425.983 460.441 424.725 460.443 Z" fill="#ffffff" fill-opacity="1" stroke="none"/>
 <path id="Path-6" d="M438.102 469.457 L413.784 469.457 C412.527 469.452 411.511 468.432 411.511 467.175 411.511 465.919 412.527 464.899 413.784 464.894 L438.102 464.894 C439.359 464.899 440.375 465.919 440.375 467.175 440.375 468.432 439.359 469.452 438.102 469.457 Z" fill="#ffffff" fill-opacity="1" stroke="none"/>
 <path id="Path-7" d="M284.725 288.443 L273.784 288.443 C272.527 288.439 271.511 287.419 271.511 286.162 271.511 284.905 272.527 283.885 273.784 283.881 L284.725 283.881 C285.982 283.885 286.998 284.905 286.998 286.162 286.998 287.419 285.982 288.439 284.725 288.443 Z" fill="#ffffff" fill-opacity="1" stroke="none"/>
 <path id="Path-8" d="M284.725 296.443 L273.784 296.443 C272.527 296.439 271.511 295.419 271.511 294.162 271.511 292.905 272.527 291.885 273.784 291.881 L284.725 291.881 C285.982 291.885 286.998 292.905 286.998 294.162 286.998 295.419 285.982 296.439 284.725 296.443 Z" fill="#ffffff" fill-opacity="1" stroke="none"/>
 <path id="Path-9" d="M284.725 304.443 L273.784 304.443 C272.527 304.439 271.511 303.419 271.511 302.162 271.511 300.905 272.527 299.885 273.784 299.881 L284.725 299.881 C285.982 299.885 286.998 300.905 286.998 302.162 286.998 303.419 285.982 304.439 284.725 304.443 Z" fill="#ffffff" fill-opacity="1" stroke="none"/>
 <path id="Path-10" d="M714.626 352.865 L612.961 352.865 C607.288 352.859 602.691 348.262 602.685 342.588 L602.685 279.972 C602.691 274.3 607.288 269.702 612.961 269.696 L714.626 269.696 C720.299 269.702 724.897 274.299 724.903 279.972 L724.903 342.589 C724.897 348.262 720.299 352.859 714.626 352.865 Z" fill="#e6e6e6" fill-opacity="1" stroke="none"/>
 <path id="Path-11" d="M674.233 344.8 L620.108 344.8 C614.795 344.794 610.489 340.488 610.483 335.175 L610.483 287.385 C610.489 282.073 614.794 277.767 620.107 277.761 L707.48 277.761 C712.793 277.767 717.099 282.072 717.105 287.385 L717.105 301.929 C717.079 325.593 697.901 344.772 674.235 344.8 Z" fill="#ffffff" fill-opacity="1" stroke="none"/>
 <path id="Path-12" d="M698.764 303.93 L628.823 303.93 C627.564 303.93 626.542 302.908 626.542 301.649 626.542 300.389 627.564 299.368 628.823 299.368 L698.764 299.368 C700.024 299.368 701.045 300.389 701.045 301.649 701.045 302.908 700.024 303.93 698.764 303.93 Z" fill="#fca311" fill-opacity="1" stroke="none"/>
 <path id="Path-13" d="M639.764 312.943 L628.824 312.943 C627.564 312.943 626.542 311.922 626.542 310.662 626.542 309.402 627.564 308.381 628.824 308.381 L639.764 308.381 C641.021 308.385 642.038 309.405 642.038 310.662 642.038 311.919 641.021 312.939 639.764 312.943 Z" fill="#fca311" fill-opacity="1" stroke="none"/>
 <path id="Path-14" d="M659.141 321.956 L628.824 321.956 C627.565 321.954 626.546 320.934 626.546 319.675 626.546 318.417 627.565 317.396 628.824 317.394 L659.141 317.394 C659.957 317.393 660.711 317.827 661.12 318.534 661.528 319.24 661.528 320.11 661.12 320.817 660.711 321.523 659.957 321.957 659.141 321.956 Z" fill="#fca311" fill-opacity="1" stroke="none"/>
 <path id="Path-15" d="M618.643 273.448 C618.643 285.326 609.014 294.955 597.137 294.955 585.259 294.955 575.631 285.326 575.631 273.448 575.631 261.571 585.259 251.942 597.137 251.942 609.014 251.942 618.643 261.571 618.643 273.448 Z" fill="#14213d" fill-opacity="1" stroke="none"/>
 <path id="Path-16" d="M363.687 109.85 C369.674 79.458 399.165 59.675 429.556 65.663 459.947 71.65 479.731 101.141 473.743 131.532 L471.78 131.146 C475.52 112.186 468.86 92.671 454.309 79.954 439.758 67.237 419.528 63.25 401.239 69.495 382.951 75.74 369.384 91.268 365.651 110.229 Z" fill="#14213d" fill-opacity="1" stroke="none"/>
 <path id="Path-17" d="M384.984 145.234 L353.208 146.55 C351.833 146.61 350.505 146.037 349.606 144.995 348.718 143.98 348.343 142.615 348.589 141.288 351.027 127.992 350.317 114.308 346.514 101.336 345.908 99.29 346.833 97.101 348.722 96.109 361.737 89.347 373.933 89.004 384.967 95.089 386.138 95.725 386.969 96.844 387.239 98.149 390.111 112.305 390.8 126.817 389.281 141.181 389.063 143.416 387.228 145.147 384.984 145.234 Z" fill="#fca311" fill-opacity="1" stroke="none"/>
 <path id="Path-18" d="M383.64 124.436 L359.343 125.443 C358.528 125.477 357.756 125.075 357.319 124.386 356.882 123.697 356.846 122.827 357.225 122.105 357.603 121.382 358.339 120.917 359.154 120.884 L383.451 119.878 C384.71 119.826 385.772 120.804 385.824 122.063 385.876 123.322 384.898 124.384 383.64 124.436 Z" fill="#ffffff" fill-opacity="1" stroke="none"/>
 <path id="Path-19" d="M383.309 116.443 L359.012 117.45 C357.753 117.502 356.69 116.523 356.638 115.265 356.586 114.006 357.564 112.943 358.823 112.891 L383.12 111.885 C384.378 111.833 385.441 112.811 385.493 114.07 385.545 115.328 384.567 116.391 383.309 116.443 Z" fill="#ffffff" fill-opacity="1" stroke="none"/>
 <path id="Path-20" d="M592.942 135.17 L491.277 135.17 C485.604 135.163 481.006 130.566 481 124.893 L481 62.277 C481.006 56.604 485.603 52.007 491.276 52 L592.942 52 C598.615 52.006 603.212 56.604 603.219 62.277 L603.219 124.893 C603.212 130.566 598.615 135.163 592.942 135.17 Z" fill="#e6e6e6" fill-opacity="1" stroke="none"/>
 <path id="Path-21" d="M552.549 127.104 L498.423 127.104 C493.11 127.098 488.804 122.793 488.798 117.48 L488.798 69.69 C488.804 64.377 493.109 60.071 498.423 60.065 L585.796 60.065 C591.109 60.071 595.414 64.377 595.42 69.69 L595.42 84.233 C595.393 107.9 576.214 127.078 552.548 127.104 Z" fill="#ffffff" fill-opacity="1" stroke="none"/>
 <path id="Path-22" d="M577.079 86.234 L507.139 86.234 C506.323 86.235 505.569 85.8 505.161 85.094 504.753 84.388 504.753 83.518 505.161 82.812 505.569 82.106 506.323 81.671 507.139 81.672 L577.079 81.672 C577.895 81.671 578.649 82.106 579.057 82.812 579.465 83.518 579.465 84.388 579.057 85.094 578.649 85.8 577.895 86.235 577.079 86.234 Z" fill="#fca311" fill-opacity="1" stroke="none"/>
 <path id="Path-23" d="M518.08 95.247 L507.139 95.247 C505.881 95.245 504.863 94.224 504.863 92.966 504.863 91.708 505.881 90.688 507.139 90.685 L518.08 90.685 C519.337 90.688 520.356 91.708 520.356 92.966 520.356 94.224 519.337 95.245 518.079 95.247 Z" fill="#fca311" fill-opacity="1" stroke="none"/>
 <path id="Path-24" d="M537.456 104.261 L507.139 104.261 C505.879 104.261 504.858 103.239 504.858 101.979 504.858 100.72 505.879 99.698 507.139 99.698 L537.456 99.698 C538.714 99.701 539.733 100.722 539.733 101.98 539.733 103.237 538.714 104.258 537.456 104.261 Z" fill="#fca311" fill-opacity="1" stroke="none"/>
 <path id="Path-25" d="M486.172 116.391 C496.259 122.661 499.353 135.922 493.083 146.009 486.812 156.097 473.552 159.191 463.464 152.92 453.377 146.65 450.283 133.389 456.553 123.302 462.824 113.214 476.084 110.12 486.172 116.391 Z" fill="#14213d" fill-opacity="1" stroke="none"/>
 <path id="Path-26" d="M188.328 302.43 C169.954 253.857 194.435 199.586 243.008 181.212 291.581 162.838 345.852 187.319 364.226 235.892 L362.355 236.6 C350.722 205.847 323.567 183.636 291.118 178.334 258.669 173.033 225.856 185.445 205.04 210.895 184.224 236.346 178.566 270.969 190.199 301.722 Z" fill="#14213d" fill-opacity="1" stroke="none"/>
 <path id="Path-27" d="M270.585 209.292 L238.781 209.292 C237.404 209.295 236.102 208.668 235.246 207.589 234.401 206.539 234.083 205.159 234.383 203.844 237.394 190.556 237.224 176.745 233.886 163.535 233.4 161.615 234.238 159.604 235.944 158.597 247.465 151.891 259.767 152.096 272.509 159.207 273.732 159.874 274.578 161.067 274.802 162.441 277.07 176.672 277.152 191.165 275.045 205.421 274.736 207.645 272.83 209.298 270.585 209.292 Z" fill="#fca311" fill-opacity="1" stroke="none"/>
 <path id="Path-28" d="M255.725 178.443 L244.784 178.443 C243.527 178.439 242.511 177.419 242.511 176.162 242.511 174.905 243.527 173.885 244.784 173.881 L255.725 173.881 C256.982 173.885 257.998 174.905 257.998 176.162 257.998 177.419 256.982 178.439 255.725 178.443 Z" fill="#ffffff" fill-opacity="1" stroke="none"/>
 <path id="Path-29" d="M269.102 187.457 L244.784 187.457 C243.526 187.455 242.507 186.434 242.507 185.175 242.507 183.917 243.526 182.896 244.784 182.894 L269.102 182.894 C270.359 182.899 271.375 183.919 271.375 185.175 271.375 186.432 270.359 187.452 269.102 187.457 Z" fill="#ffffff" fill-opacity="1" stroke="none"/>
 <path id="Path-30" d="M165.942 301.17 L64.277 301.17 C58.604 301.163 54.006 296.566 54 290.893 L54 228.277 C54.006 222.604 58.603 218.007 64.276 218 L165.942 218 C171.615 218.006 176.212 222.604 176.219 228.277 L176.219 290.893 C176.212 296.566 171.615 301.163 165.942 301.17 Z" fill="#e6e6e6" fill-opacity="1" stroke="none"/>
 <path id="Path-31" d="M125.549 293.104 L71.423 293.104 C66.11 293.098 61.804 288.793 61.798 283.48 L61.798 235.69 C61.804 230.377 66.109 226.071 71.423 226.065 L158.796 226.065 C164.109 226.071 168.414 230.377 168.42 235.69 L168.42 250.233 C168.394 273.897 149.217 293.077 125.551 293.104 Z" fill="#ffffff" fill-opacity="1" stroke="none"/>
 <path id="Path-32" d="M150.08 252.234 L80.139 252.234 C78.879 252.234 77.858 251.213 77.858 249.953 77.858 248.693 78.879 247.672 80.139 247.672 L150.08 247.672 C151.339 247.672 152.361 248.693 152.361 249.953 152.361 251.213 151.339 252.234 150.08 252.234 Z" fill="#fca311" fill-opacity="1" stroke="none"/>
 <path id="Path-33" d="M91.08 261.247 L80.139 261.247 C78.879 261.247 77.858 260.226 77.858 258.966 77.858 257.706 78.879 256.685 80.139 256.685 L91.08 256.685 C92.336 256.689 93.353 257.709 93.353 258.966 93.353 260.223 92.336 261.243 91.079 261.247 Z" fill="#fca311" fill-opacity="1" stroke="none"/>
 <path id="Path-34" d="M110.457 270.261 L80.139 270.261 C78.882 270.256 77.865 269.236 77.865 267.98 77.865 266.723 78.882 265.703 80.139 265.698 L110.457 265.698 C111.715 265.7 112.734 266.721 112.734 267.98 112.734 269.238 111.715 270.259 110.456 270.261 Z" fill="#fca311" fill-opacity="1" stroke="none"/>
 <path id="Path-35" d="M199.172 280.391 C209.259 286.661 212.353 299.922 206.083 310.009 199.812 320.097 186.552 323.191 176.464 316.92 166.377 310.65 163.283 297.389 169.553 287.302 175.824 277.214 189.084 274.12 199.172 280.391 Z" fill="#14213d" fill-opacity="1" stroke="none"/>
 <path id="Path-36" d="M379.585 269.292 L347.781 269.292 C346.404 269.295 345.102 268.668 344.246 267.589 343.401 266.539 343.083 265.159 343.383 263.844 346.389 250.579 346.224 236.793 342.904 223.604 342.42 221.656 343.287 219.624 345.028 218.626 360.478 209.782 372.711 210.026 382.428 219.372 383.109 220.039 383.557 220.907 383.707 221.848 386.068 236.268 386.182 250.966 384.045 265.421 383.735 267.645 381.83 269.298 379.585 269.292 Z" fill="#ff6584" fill-opacity="1" stroke="none"/>
 <path id="Path-37" d="M366.725 239.443 L355.784 239.443 C354.527 239.439 353.511 238.419 353.511 237.162 353.511 235.905 354.527 234.885 355.784 234.881 L366.725 234.881 C367.982 234.885 368.998 235.905 368.998 237.162 368.998 238.419 367.982 239.439 366.725 239.443 Z" fill="#ffffff" fill-opacity="1" stroke="none"/>
 <path id="Path-38" d="M380.102 248.457 L355.784 248.457 C354.526 248.455 353.507 247.434 353.507 246.175 353.507 244.917 354.526 243.896 355.784 243.894 L380.102 243.894 C381.359 243.899 382.375 244.919 382.375 246.175 382.375 247.432 381.359 248.452 380.102 248.457 Z" fill="#ffffff" fill-opacity="1" stroke="none"/>
</svg>
